<svg id="svg" version="1.1" xmlns="http://www.w3.org/2000/svg" xmlns:xlink="http://www.w3.org/1999/xlink" width="400" height="200" viewBox="0, 0, 400,200"><g id="svgg"><path id="path0" d="M11.629 2.792 C 11.200 3.245,11.194 3.287,11.076 6.703 L 10.956 10.156 11.545 10.745 C 12.661 11.861,13.500 11.255,13.500 9.332 L 13.500 8.208 116.208 8.094 C 172.698 8.031,257.917 8.003,305.583 8.031 L 392.250 8.083 392.386 9.417 C 392.563 11.145,393.407 11.759,394.333 10.833 C 394.790 10.377,394.853 3.211,394.405 2.762 C 393.535 1.892,392.582 2.521,392.421 4.071 C 392.355 4.705,392.262 5.324,392.216 5.446 C 392.089 5.775,14.131 5.775,13.857 5.445 C 13.756 5.324,13.604 4.731,13.518 4.129 C 13.252 2.251,12.586 1.780,11.629 2.792 M101.833 23.106 C 83.769 24.159,62.420 31.377,47.167 41.588 C 34.342 50.173,25.183 61.957,26.341 68.382 C 27.032 72.218,31.750 73.251,31.199 69.446 C 30.750 66.337,31.472 63.871,34.161 59.333 C 46.832 37.946,87.496 21.770,116.238 26.682 C 139.028 30.578,150.744 48.299,143.500 67.917 C 139.564 78.575,134.018 85.636,123.250 93.694 C 116.226 98.951,103.111 106.075,97.393 107.741 C 96.279 108.065,96.353 110.086,96.272 76.750 C 96.225 57.553,96.143 47.436,96.031 47.152 C 95.295 45.276,92.177 45.398,91.674 47.322 C 91.583 47.672,91.476 60.477,91.414 78.417 C 91.344 98.627,91.251 109.069,91.137 109.367 C 90.920 109.940,90.463 110.234,88.959 110.772 C 86.371 111.698,85.810 112.140,86.093 113.032 C 86.305 113.699,88.060 113.876,89.857 113.411 C 90.401 113.270,90.913 113.196,90.996 113.248 C 91.304 113.438,91.351 116.009,91.393 134.833 C 91.438 154.965,91.445 155.157,92.139 156.450 C 92.682 157.460,94.340 157.686,95.165 156.861 C 96.233 155.792,96.188 156.746,96.283 133.417 C 96.357 115.396,96.406 112.172,96.612 111.726 C 96.864 111.181,97.374 110.906,99.917 109.946 C 130.002 98.587,145.995 83.924,150.395 63.667 C 154.388 45.279,142.363 28.911,121.500 24.338 C 116.725 23.291,108.020 22.746,101.833 23.106 M223.475 73.753 C 222.438 74.317,222.142 75.674,221.861 81.174 C 221.636 85.556,221.682 85.512,217.333 85.469 C 213.576 85.431,212.119 86.028,213.236 87.145 C 213.670 87.579,213.696 87.583,216.878 87.673 C 221.377 87.799,221.257 87.691,221.198 91.583 C 221.147 94.973,220.862 104.122,220.731 106.581 C 220.605 108.962,220.339 109.464,217.861 111.999 C 215.779 114.130,214.299 114.671,212.983 113.785 C 211.517 112.797,211.252 111.297,211.493 105.343 C 211.725 99.623,211.547 98.997,209.686 99.002 C 207.664 99.009,206.903 100.844,206.578 106.500 L 206.458 108.583 204.347 110.614 C 196.973 117.707,194.916 117.246,196.018 108.750 C 196.625 104.072,196.591 99.772,195.938 98.442 C 194.129 94.757,187.348 96.017,184.770 100.517 C 183.861 102.103,183.420 102.168,182.707 100.820 C 180.693 97.012,177.954 98.018,174.648 103.779 C 172.496 107.530,172.426 107.565,172.079 105.083 C 171.811 103.166,171.583 102.768,170.446 102.238 C 168.347 101.261,168.000 101.671,168.000 105.128 C 168.000 108.058,168.012 108.014,166.667 109.858 C 163.100 114.747,159.841 115.529,158.600 111.793 C 158.287 110.849,158.250 109.338,158.418 104.402 C 158.584 99.533,158.406 99.000,156.619 99.000 C 154.458 99.000,153.513 101.677,153.501 107.833 C 153.495 110.619,149.310 117.295,146.669 118.733 C 144.617 119.849,143.982 118.187,144.687 113.541 C 145.059 111.085,144.993 106.895,144.569 106.083 C 143.963 104.925,142.346 104.710,140.129 105.495 C 137.938 106.271,137.417 105.493,138.495 103.055 C 139.629 100.492,139.310 98.831,137.630 98.559 C 135.173 98.160,133.821 100.044,133.789 103.914 C 133.762 107.139,134.654 107.913,138.396 107.915 C 141.126 107.917,141.134 107.924,140.771 110.107 C 139.422 118.204,140.113 121.886,143.052 122.253 C 147.112 122.761,150.705 119.579,153.407 113.084 L 153.684 112.417 154.079 113.390 C 156.418 119.145,162.432 118.802,166.840 112.661 C 168.250 110.698,168.101 110.581,168.238 113.758 C 168.405 117.633,168.818 118.360,170.682 118.062 C 172.099 117.835,172.606 116.989,175.164 110.573 C 177.122 105.661,177.921 104.167,178.588 104.167 C 179.029 104.167,179.084 104.635,179.167 109.056 L 179.250 113.528 179.794 114.014 C 180.948 115.044,183.667 114.179,183.667 112.782 C 183.667 112.697,184.033 111.605,184.481 110.356 C 187.753 101.229,189.817 98.129,191.381 99.988 C 192.093 100.834,192.145 102.877,191.568 107.234 C 190.520 115.155,191.708 118.543,195.626 118.798 C 197.990 118.953,201.471 116.886,204.160 113.731 C 205.364 112.318,206.517 111.190,206.567 111.374 C 208.784 119.498,215.289 119.640,220.620 111.681 C 220.738 111.504,220.858 111.886,221.078 113.135 C 222.985 123.980,231.339 123.250,240.647 111.426 L 242.083 109.602 242.189 110.759 C 243.009 119.732,252.017 119.624,256.865 110.583 L 257.401 109.583 257.525 110.167 C 257.594 110.487,257.770 111.388,257.918 112.167 C 258.886 117.287,260.789 119.833,263.648 119.833 C 267.061 119.833,268.752 117.307,270.997 108.854 C 271.104 108.453,271.259 107.945,271.343 107.724 L 271.496 107.323 272.288 107.745 C 273.317 108.293,274.461 108.297,276.521 107.762 C 278.358 107.285,278.189 107.224,277.920 108.263 C 275.488 117.639,284.673 122.798,290.445 115.297 C 291.124 114.414,292.425 113.500,293.003 113.500 C 293.285 113.500,295.816 112.206,296.833 111.541 C 298.152 110.679,299.800 108.924,301.012 107.091 C 302.222 105.262,302.141 105.311,302.607 106.128 C 302.803 106.471,303.665 107.643,304.523 108.731 C 305.381 109.819,306.217 110.882,306.380 111.092 C 306.676 111.475,306.675 111.477,305.616 112.233 C 303.444 113.783,302.165 115.659,302.033 117.492 C 301.699 122.108,309.838 123.799,312.001 119.563 C 312.540 118.509,312.606 114.803,312.118 113.016 C 311.749 111.664,311.523 111.909,315.734 109.099 C 322.167 104.805,321.749 103.920,315.075 107.706 C 312.956 108.908,311.117 109.667,310.324 109.667 C 309.375 109.667,305.869 104.443,305.495 102.474 C 305.090 100.336,306.005 99.624,307.916 100.592 C 308.904 101.091,309.715 101.118,310.167 100.667 C 311.708 99.126,307.382 97.294,304.477 98.257 C 302.824 98.805,302.299 99.404,301.569 101.578 C 300.378 105.125,297.327 108.718,294.437 109.979 C 293.251 110.496,292.763 110.463,292.904 109.875 C 292.965 109.623,293.058 108.479,293.111 107.333 C 293.410 100.905,290.784 98.226,285.500 99.566 C 282.397 100.354,280.644 101.825,279.207 104.850 C 278.630 106.063,278.533 106.176,277.917 106.349 C 276.778 106.668,274.375 106.474,273.511 105.994 C 272.368 105.359,272.353 105.136,273.191 101.210 C 273.448 100.002,272.789 99.323,271.338 99.303 C 269.517 99.278,268.622 100.836,267.348 106.250 C 265.414 114.463,264.218 117.290,262.927 116.702 C 261.592 116.093,259.982 108.819,259.580 101.583 C 259.402 98.375,259.052 97.661,257.774 97.901 C 256.482 98.144,256.203 99.957,256.740 104.633 L 257.009 106.972 256.586 107.861 C 255.173 110.832,251.650 114.167,249.924 114.167 C 247.321 114.167,246.812 112.413,247.085 104.402 C 247.251 99.533,247.073 99.000,245.285 99.000 C 243.325 99.000,242.678 100.340,242.307 105.168 L 242.109 107.750 240.946 109.035 C 236.884 113.520,231.538 117.442,229.225 117.634 C 225.538 117.940,224.650 114.242,225.338 101.444 C 225.433 99.687,225.573 96.337,225.650 94.000 C 225.858 87.664,225.720 87.832,230.712 87.836 C 239.962 87.842,246.679 87.228,246.804 86.365 C 246.942 85.406,244.295 85.084,238.228 85.323 C 232.783 85.536,228.143 85.544,227.268 85.342 C 226.062 85.062,226.097 85.213,225.962 79.705 C 225.891 76.797,225.767 74.574,225.660 74.316 C 225.343 73.552,224.327 73.291,223.475 73.753 M157.633 88.452 C 156.141 88.680,155.188 92.500,156.518 92.922 C 158.498 93.551,160.968 89.360,159.083 88.572 C 158.768 88.441,158.415 88.345,158.297 88.358 C 158.179 88.372,157.881 88.414,157.633 88.452 M210.570 88.507 C 208.809 89.036,208.321 93.000,210.018 93.000 C 211.005 93.000,211.701 92.399,212.478 90.877 C 213.348 89.171,212.376 87.965,210.570 88.507 M246.300 88.452 C 244.807 88.680,243.855 92.500,245.185 92.922 C 247.164 93.551,249.635 89.360,247.749 88.572 C 247.435 88.441,247.081 88.345,246.964 88.358 C 246.846 88.372,246.547 88.414,246.300 88.452 M288.705 102.775 C 289.659 104.410,289.623 109.333,288.657 109.333 C 288.035 109.333,286.842 106.464,286.837 104.953 C 286.829 102.828,287.963 101.506,288.705 102.775 M283.232 106.536 C 283.525 108.001,284.680 109.891,286.190 111.374 L 287.673 112.832 287.247 113.672 C 286.458 115.229,284.821 116.500,283.605 116.500 C 281.469 116.500,280.844 110.801,282.540 106.792 C 282.933 105.862,283.086 105.805,283.232 106.536 M308.051 114.575 C 308.574 115.098,308.585 117.998,308.067 119.021 C 307.387 120.367,305.667 119.388,305.667 117.654 C 305.667 115.923,307.296 113.820,308.051 114.575 M168.833 135.816 L 168.833 142.833 169.500 142.833 L 170.167 142.833 170.167 139.991 L 170.167 137.148 170.947 137.199 L 171.728 137.250 173.655 140.036 L 175.583 142.822 176.464 142.827 L 177.344 142.833 176.701 141.958 C 173.203 137.194,173.185 137.167,173.542 137.166 C 176.460 137.153,178.150 132.893,176.233 130.379 C 175.306 129.165,174.563 128.923,171.542 128.858 L 168.833 128.799 168.833 135.816 M174.706 130.583 C 176.177 131.659,176.187 134.049,174.726 135.332 C 174.159 135.830,174.140 135.833,172.161 135.833 L 170.167 135.833 170.167 132.986 L 170.167 130.139 172.208 130.195 C 173.932 130.241,174.321 130.302,174.706 130.583 M198.500 132.083 L 198.500 133.833 197.500 133.833 L 196.500 133.833 196.500 134.417 L 196.500 135.000 197.500 135.000 L 198.500 135.000 198.500 138.917 L 198.500 142.833 199.167 142.833 L 199.833 142.833 199.833 138.917 L 199.833 135.000 200.833 135.000 L 201.833 135.000 201.833 134.417 L 201.833 133.833 200.833 133.833 L 199.833 133.833 199.833 132.083 L 199.833 130.333 199.167 130.333 L 198.500 130.333 198.500 132.083 M252.500 132.083 L 252.500 133.833 251.500 133.833 L 250.500 133.833 250.500 134.417 L 250.500 135.000 251.500 135.000 L 252.500 135.000 252.500 138.917 L 252.500 142.833 253.167 142.833 L 253.833 142.833 253.833 138.917 L 253.833 135.000 254.833 135.000 L 255.833 135.000 255.833 134.417 L 255.833 133.833 254.833 133.833 L 253.833 133.833 253.833 132.083 L 253.833 130.333 253.167 130.333 L 252.500 130.333 252.500 132.083 M182.084 133.689 C 178.956 134.421,177.714 138.848,179.942 141.326 C 182.019 143.637,185.543 143.284,186.935 140.625 L 187.175 140.167 186.447 140.167 C 185.918 140.167,185.631 140.263,185.401 140.518 C 184.016 142.049,181.374 141.670,180.401 139.800 C 179.888 138.815,179.821 138.833,183.833 138.833 L 187.500 138.833 187.500 137.866 C 187.500 135.083,184.853 133.042,182.084 133.689 M190.575 133.901 C 189.635 134.310,189.167 135.064,189.167 136.167 C 189.167 137.600,189.555 137.989,191.659 138.664 C 193.970 139.406,194.516 140.007,193.923 141.155 C 193.318 142.325,190.819 142.028,190.325 140.728 C 190.103 140.145,188.746 140.126,188.928 140.708 C 189.200 141.582,189.331 141.797,189.894 142.291 C 192.547 144.621,197.325 141.181,194.921 138.671 C 194.427 138.156,194.226 138.063,192.389 137.500 C 190.950 137.059,190.500 136.687,190.500 135.936 C 190.500 134.556,192.924 134.225,193.591 135.514 C 193.930 136.171,195.270 136.271,195.077 135.625 C 194.569 133.924,192.416 133.099,190.575 133.901 M205.705 134.019 C 203.801 134.962,202.856 137.650,203.608 139.980 C 204.575 142.974,207.738 143.870,210.081 141.813 L 210.667 141.299 210.667 142.066 C 210.667 142.832,210.668 142.833,211.250 142.833 L 211.833 142.833 211.833 138.333 L 211.833 133.833 211.250 133.833 C 210.681 133.833,210.667 133.849,210.667 134.500 C 210.667 135.303,210.620 135.312,209.951 134.643 C 208.911 133.603,207.087 133.335,205.705 134.019 M227.040 133.921 C 226.833 134.068,226.518 134.464,226.339 134.802 L 226.015 135.417 226.007 134.625 L 226.000 133.833 225.333 133.833 L 224.667 133.833 224.667 138.333 L 224.667 142.833 225.333 142.833 L 226.000 142.833 226.001 140.208 C 226.002 136.127,226.948 134.414,228.687 135.344 C 229.001 135.512,229.015 135.475,228.967 134.636 L 228.917 133.750 228.167 133.703 C 227.682 133.672,227.283 133.749,227.040 133.921 M232.534 133.945 C 229.436 135.472,229.387 140.628,232.453 142.522 C 233.732 143.313,236.388 142.810,237.003 141.661 C 237.295 141.116,237.500 141.290,237.500 142.083 C 237.500 142.829,237.503 142.833,238.083 142.833 L 238.667 142.833 238.667 138.333 L 238.667 133.833 238.083 133.833 C 237.514 133.833,237.500 133.849,237.500 134.500 C 237.500 135.304,237.397 135.324,236.755 134.643 C 235.832 133.666,233.787 133.328,232.534 133.945 M244.235 133.972 C 243.952 134.150,243.566 134.492,243.378 134.731 C 242.916 135.318,242.833 135.283,242.833 134.500 C 242.833 133.849,242.819 133.833,242.250 133.833 L 241.667 133.833 241.667 138.333 L 241.667 142.833 242.230 142.833 L 242.794 142.833 242.866 140.125 C 242.966 136.308,243.692 135.000,245.710 135.000 C 247.255 135.000,247.500 135.653,247.500 139.775 L 247.500 142.833 248.181 142.833 L 248.863 142.833 248.806 139.458 C 248.744 135.726,248.530 134.880,247.453 134.097 C 246.774 133.604,244.935 133.533,244.235 133.972 M214.863 137.292 C 214.910 140.289,214.959 140.835,215.234 141.390 C 216.166 143.267,219.021 143.441,220.321 141.699 L 220.656 141.250 220.661 142.042 L 220.667 142.833 221.333 142.833 L 222.000 142.833 222.000 138.333 L 222.000 133.833 221.353 133.833 L 220.705 133.833 220.640 136.625 C 220.579 139.219,220.545 139.469,220.162 140.158 C 219.352 141.615,217.568 142.063,216.653 141.039 L 216.167 140.495 216.167 137.164 L 216.167 133.833 215.488 133.833 L 214.809 133.833 214.863 137.292 M184.250 135.149 C 185.247 135.611,186.167 136.744,186.167 137.511 C 186.167 137.602,184.909 137.667,183.149 137.667 L 180.131 137.667 180.242 137.208 C 180.652 135.523,182.740 134.450,184.250 135.149 M208.980 135.342 C 210.582 136.243,211.065 138.363,210.066 140.110 C 208.711 142.482,205.438 141.878,204.724 139.125 C 204.017 136.401,206.669 134.043,208.980 135.342 M235.650 135.241 C 237.613 136.257,238.002 139.068,236.406 140.707 C 233.760 143.422,229.838 139.439,232.021 136.253 C 232.797 135.121,234.500 134.646,235.650 135.241 M226.417 169.273 C 218.850 170.310,215.641 176.891,220.505 181.394 C 227.232 187.622,239.774 181.522,236.051 173.833 C 234.666 170.972,230.029 168.777,226.417 169.273 M334.297 171.325 C 327.271 172.281,324.108 178.829,328.557 183.209 C 333.022 187.606,341.856 186.467,344.397 181.167 C 346.862 176.026,341.090 170.402,334.297 171.325 M230.167 172.825 L 230.167 173.649 229.292 173.700 C 228.438 173.749,228.415 173.763,228.364 174.292 L 228.312 174.833 229.262 174.833 L 230.212 174.833 230.107 175.597 C 229.966 176.624,229.926 176.667,229.073 176.667 L 228.333 176.667 228.333 178.917 L 228.333 181.167 227.083 181.167 L 225.833 181.167 225.833 178.917 L 225.833 176.667 225.333 176.667 C 224.838 176.667,224.833 176.657,224.833 175.750 C 224.833 174.843,224.838 174.833,225.333 174.833 C 225.796 174.833,225.833 174.789,225.833 174.234 C 225.833 172.652,226.686 172.010,228.792 172.004 L 230.167 172.000 230.167 172.825 M339.009 174.833 C 339.336 174.924,339.823 175.228,340.093 175.509 L 340.583 176.021 340.636 178.575 L 340.690 181.129 340.163 181.729 C 339.402 182.596,338.853 182.699,335.320 182.637 C 330.938 182.561,330.499 182.210,330.501 178.788 C 330.502 176.240,330.953 175.233,332.267 174.840 C 332.941 174.638,338.289 174.633,339.009 174.833 M332.400 175.733 C 331.705 176.042,331.667 176.197,331.667 178.667 C 331.667 181.907,331.574 181.833,335.667 181.833 C 339.760 181.833,339.667 181.907,339.667 178.662 C 339.667 176.637,339.644 176.493,339.265 176.051 L 338.863 175.583 335.890 175.543 C 333.648 175.512,332.790 175.559,332.400 175.733 M338.745 176.226 C 339.196 176.556,338.960 177.000,338.333 177.000 C 337.707 177.000,337.471 176.556,337.921 176.226 C 338.091 176.102,338.277 176.000,338.333 176.000 C 338.390 176.000,338.575 176.102,338.745 176.226 M337.122 176.948 C 337.726 177.233,338.333 178.094,338.333 178.667 C 338.333 180.734,334.595 181.502,333.379 179.684 C 332.071 177.728,334.700 175.807,337.122 176.948 M334.835 177.625 C 333.663 178.213,333.834 179.454,335.142 179.846 C 336.913 180.376,338.043 178.366,336.410 177.591 C 335.721 177.264,335.548 177.268,334.835 177.625 M239.000 181.583 C 239.000 183.620,239.039 184.000,239.250 184.000 C 239.441 184.000,239.500 183.789,239.500 183.105 L 239.500 182.209 240.365 182.126 C 242.814 181.891,242.561 179.167,240.091 179.167 L 239.000 179.167 239.000 181.583 M269.833 181.583 C 269.833 183.889,269.849 184.000,270.167 184.000 C 270.460 184.000,270.500 183.889,270.500 183.083 C 270.500 182.416,270.562 182.167,270.730 182.167 C 270.856 182.167,271.244 182.579,271.591 183.083 C 272.055 183.758,272.326 184.000,272.616 184.000 C 272.997 184.000,272.987 183.968,272.337 183.088 L 271.664 182.177 272.147 181.927 C 273.749 181.098,272.926 179.167,270.971 179.167 L 269.833 179.167 269.833 181.583 M305.118 179.625 C 305.279 179.877,305.656 180.430,305.955 180.853 C 306.448 181.549,306.500 181.738,306.500 182.812 C 306.500 183.889,306.531 184.000,306.833 184.000 C 307.135 184.000,307.167 183.889,307.167 182.826 C 307.167 181.692,307.195 181.609,308.005 180.409 C 308.787 179.250,308.818 179.167,308.463 179.168 C 308.185 179.168,307.927 179.414,307.500 180.083 C 306.786 181.203,306.830 181.203,306.152 180.083 C 305.736 179.397,305.500 179.167,305.211 179.167 C 304.831 179.167,304.830 179.173,305.118 179.625 M241.126 179.875 C 241.768 180.678,241.165 181.736,240.122 181.635 C 239.590 181.584,239.583 181.571,239.533 180.625 L 239.483 179.667 240.221 179.667 C 240.627 179.667,241.034 179.760,241.126 179.875 M245.000 180.000 C 245.000 180.251,245.087 180.341,245.292 180.302 C 245.452 180.271,245.583 180.135,245.583 180.000 C 245.583 179.865,245.452 179.729,245.292 179.698 C 245.087 179.659,245.000 179.749,245.000 180.000 M252.195 179.943 C 252.228 180.112,252.366 180.250,252.502 180.250 C 252.860 180.250,252.808 179.766,252.443 179.695 C 252.220 179.653,252.153 179.720,252.195 179.943 M254.333 180.250 C 254.333 180.761,254.282 180.833,253.917 180.833 C 253.657 180.833,253.500 180.928,253.500 181.083 C 253.500 181.239,253.657 181.333,253.917 181.333 C 254.326 181.333,254.333 181.356,254.333 182.667 C 254.333 183.741,254.382 184.000,254.583 184.000 C 254.785 184.000,254.833 183.741,254.833 182.667 C 254.833 181.444,254.861 181.333,255.167 181.333 C 255.352 181.333,255.500 181.222,255.500 181.083 C 255.500 180.944,255.352 180.833,255.167 180.833 C 254.897 180.833,254.833 180.722,254.833 180.250 C 254.833 179.843,254.758 179.667,254.583 179.667 C 254.409 179.667,254.333 179.843,254.333 180.250 M256.333 180.000 C 256.333 180.251,256.420 180.341,256.625 180.302 C 256.785 180.271,256.917 180.135,256.917 180.000 C 256.917 179.865,256.785 179.729,256.625 179.698 C 256.420 179.659,256.333 179.749,256.333 180.000 M272.133 179.867 C 272.756 180.490,272.070 181.667,271.083 181.667 L 270.500 181.667 270.500 180.667 L 270.500 179.667 271.217 179.667 C 271.611 179.667,272.023 179.757,272.133 179.867 M281.000 180.250 C 281.000 180.761,280.948 180.833,280.583 180.833 C 280.324 180.833,280.167 180.928,280.167 181.083 C 280.167 181.239,280.324 181.333,280.583 181.333 C 280.993 181.333,281.000 181.356,281.000 182.667 C 281.000 183.741,281.049 184.000,281.250 184.000 C 281.451 184.000,281.500 183.741,281.500 182.667 C 281.500 181.444,281.528 181.333,281.833 181.333 C 282.019 181.333,282.167 181.222,282.167 181.083 C 282.167 180.944,282.019 180.833,281.833 180.833 C 281.563 180.833,281.500 180.722,281.500 180.250 C 281.500 179.843,281.425 179.667,281.250 179.667 C 281.075 179.667,281.000 179.843,281.000 180.250 M301.000 180.250 C 301.000 180.722,300.937 180.833,300.667 180.833 C 300.481 180.833,300.333 180.944,300.333 181.083 C 300.333 181.222,300.481 181.333,300.667 181.333 C 300.972 181.333,301.000 181.444,301.000 182.667 C 301.000 183.889,301.028 184.000,301.333 184.000 C 301.639 184.000,301.667 183.889,301.667 182.667 C 301.667 181.444,301.694 181.333,302.000 181.333 C 302.185 181.333,302.333 181.222,302.333 181.083 C 302.333 180.944,302.185 180.833,302.000 180.833 C 301.730 180.833,301.667 180.722,301.667 180.250 C 301.667 179.778,301.603 179.667,301.333 179.667 C 301.063 179.667,301.000 179.778,301.000 180.250 M356.456 179.766 C 356.294 179.928,356.516 180.333,356.768 180.333 C 356.896 180.333,357.000 180.183,357.000 180.000 C 357.000 179.686,356.675 179.547,356.456 179.766 M363.529 179.943 C 363.561 180.112,363.699 180.250,363.836 180.250 C 364.193 180.250,364.141 179.766,363.777 179.695 C 363.554 179.653,363.486 179.720,363.529 179.943 M365.667 180.250 C 365.667 180.761,365.615 180.833,365.250 180.833 C 364.991 180.833,364.833 180.928,364.833 181.083 C 364.833 181.239,364.991 181.333,365.250 181.333 C 365.660 181.333,365.667 181.356,365.667 182.667 C 365.667 183.741,365.715 184.000,365.917 184.000 C 366.118 184.000,366.167 183.741,366.167 182.667 C 366.167 181.444,366.194 181.333,366.500 181.333 C 366.685 181.333,366.833 181.222,366.833 181.083 C 366.833 180.944,366.685 180.833,366.500 180.833 C 366.230 180.833,366.167 180.722,366.167 180.250 C 366.167 179.843,366.091 179.667,365.917 179.667 C 365.742 179.667,365.667 179.843,365.667 180.250 M367.667 180.000 C 367.667 180.251,367.754 180.341,367.958 180.302 C 368.119 180.271,368.250 180.135,368.250 180.000 C 368.250 179.865,368.119 179.729,367.958 179.698 C 367.754 179.659,367.667 179.749,367.667 180.000 M388.833 180.250 C 388.833 180.761,388.782 180.833,388.417 180.833 C 388.157 180.833,388.000 180.928,388.000 181.083 C 388.000 181.239,388.157 181.333,388.417 181.333 C 388.826 181.333,388.833 181.356,388.833 182.667 C 388.833 183.741,388.882 184.000,389.083 184.000 C 389.285 184.000,389.333 183.741,389.333 182.667 C 389.333 181.356,389.340 181.333,389.750 181.333 C 390.009 181.333,390.167 181.239,390.167 181.083 C 390.167 180.928,390.009 180.833,389.750 180.833 C 389.385 180.833,389.333 180.761,389.333 180.250 C 389.333 179.843,389.258 179.667,389.083 179.667 C 388.909 179.667,388.833 179.843,388.833 180.250 M346.893 180.910 C 346.042 181.507,345.978 183.030,346.779 183.659 C 347.238 184.021,348.833 184.156,348.833 183.833 C 348.833 183.742,348.542 183.667,348.185 183.667 C 347.278 183.667,346.767 183.216,346.767 182.417 C 346.767 181.709,347.316 181.115,347.890 181.200 C 348.461 181.285,348.398 181.640,347.802 181.697 C 347.301 181.745,347.245 181.805,347.200 182.348 C 347.135 183.122,347.446 183.390,348.237 183.241 L 348.833 183.130 348.833 182.174 C 348.833 180.796,347.913 180.196,346.893 180.910 M242.667 182.433 C 242.667 183.889,242.690 184.000,243.000 184.000 C 243.299 184.000,243.333 183.889,243.333 182.929 C 243.333 181.802,243.610 181.258,244.088 181.442 C 244.255 181.506,244.333 181.426,244.333 181.194 C 244.333 180.894,244.231 180.853,243.500 180.859 L 242.667 180.865 242.667 182.433 M245.000 182.417 C 245.000 183.713,245.045 184.000,245.250 184.000 C 245.455 184.000,245.500 183.713,245.500 182.417 C 245.500 181.120,245.455 180.833,245.250 180.833 C 245.045 180.833,245.000 181.120,245.000 182.417 M246.833 182.434 C 246.833 183.889,246.857 184.000,247.167 184.000 C 247.463 184.000,247.500 183.889,247.500 182.989 C 247.500 181.837,247.703 181.333,248.167 181.333 C 248.631 181.333,248.833 181.837,248.833 182.989 C 248.833 183.777,248.889 184.000,249.083 184.000 C 249.278 184.000,249.333 183.777,249.333 182.989 C 249.333 181.837,249.536 181.333,250.000 181.333 C 250.464 181.333,250.667 181.837,250.667 182.989 C 250.667 183.777,250.722 184.000,250.917 184.000 C 251.278 184.000,251.270 181.722,250.907 181.204 C 250.621 180.795,249.711 180.689,249.374 181.026 C 249.231 181.169,249.122 181.171,248.955 181.032 C 248.831 180.929,248.303 180.850,247.782 180.856 L 246.833 180.868 246.833 182.434 M252.167 182.417 C 252.167 183.889,252.190 184.000,252.500 184.000 C 252.810 184.000,252.833 183.889,252.833 182.417 C 252.833 180.944,252.810 180.833,252.500 180.833 C 252.190 180.833,252.167 180.944,252.167 182.417 M256.333 182.417 C 256.333 183.713,256.379 184.000,256.583 184.000 C 256.788 184.000,256.833 183.713,256.833 182.417 C 256.833 181.120,256.788 180.833,256.583 180.833 C 256.379 180.833,256.333 181.120,256.333 182.417 M257.667 180.978 C 257.667 181.201,258.816 184.049,258.967 184.200 C 259.031 184.264,259.375 183.568,259.731 182.653 C 260.087 181.738,260.334 180.945,260.279 180.891 C 260.042 180.653,259.727 181.026,259.431 181.895 C 259.036 183.058,258.995 183.058,258.570 181.875 C 258.269 181.038,257.667 180.440,257.667 180.978 M261.544 181.088 C 260.801 181.608,260.727 183.019,261.410 183.660 C 262.733 184.903,264.768 183.313,263.930 181.692 C 263.484 180.829,262.330 180.537,261.544 181.088 M264.907 181.242 C 264.511 181.846,264.734 182.247,265.684 182.643 C 266.308 182.902,266.511 183.069,266.470 183.288 C 266.396 183.678,265.537 183.790,265.398 183.428 C 265.289 183.143,264.667 183.063,264.667 183.333 C 264.667 183.674,265.349 184.167,265.820 184.167 C 267.406 184.167,267.580 182.846,266.081 182.183 C 265.297 181.836,265.204 181.696,265.533 181.367 C 265.798 181.102,265.924 181.114,266.242 181.433 C 266.660 181.850,267.138 181.595,266.747 181.163 C 266.298 180.667,265.254 180.712,264.907 181.242 M274.210 181.088 C 273.468 181.608,273.394 183.019,274.076 183.660 C 274.731 184.275,275.529 184.286,276.185 183.690 C 276.843 183.092,276.383 182.908,275.568 183.442 C 275.172 183.701,275.122 183.698,274.709 183.390 C 273.903 182.788,274.034 182.667,275.486 182.667 C 276.973 182.667,277.060 182.588,276.582 181.663 C 276.150 180.829,274.985 180.546,274.210 181.088 M277.740 181.242 C 277.349 181.839,277.567 182.268,278.430 182.597 C 279.272 182.919,279.377 183.024,279.233 183.402 C 279.104 183.738,278.354 183.749,278.227 183.417 C 278.104 183.097,277.500 183.089,277.500 183.407 C 277.500 183.540,277.667 183.765,277.870 183.907 C 278.708 184.494,279.890 184.016,279.801 183.126 C 279.750 182.614,279.663 182.532,278.752 182.132 C 278.478 182.012,278.231 181.793,278.202 181.645 C 278.129 181.263,278.659 181.108,278.996 181.413 C 279.339 181.724,279.667 181.742,279.667 181.450 C 279.667 180.731,278.180 180.570,277.740 181.242 M283.544 181.088 C 282.308 181.953,283.143 184.389,284.572 184.088 C 284.853 184.028,285.290 183.981,285.542 183.983 L 286.000 183.987 286.000 182.410 C 286.000 181.120,285.955 180.833,285.750 180.833 C 285.612 180.833,285.500 180.911,285.500 181.006 C 285.500 181.125,285.400 181.125,285.178 181.006 C 284.711 180.756,283.964 180.794,283.544 181.088 M287.167 182.246 C 287.167 183.854,287.498 184.328,288.459 184.093 C 288.711 184.032,289.085 183.985,289.292 183.989 C 289.655 183.996,289.667 183.946,289.667 182.415 C 289.667 181.120,289.621 180.833,289.417 180.833 C 289.222 180.833,289.167 181.055,289.167 181.824 C 289.167 184.090,287.787 184.357,287.701 182.107 C 287.627 180.163,287.167 180.283,287.167 182.246 M290.667 182.433 C 290.667 183.889,290.690 184.000,291.000 184.000 C 291.299 184.000,291.333 183.889,291.333 182.929 C 291.333 181.802,291.610 181.258,292.088 181.442 C 292.255 181.506,292.333 181.426,292.333 181.194 C 292.333 180.894,292.231 180.853,291.500 180.859 L 290.667 180.865 290.667 182.433 M293.544 181.088 C 292.308 181.953,293.143 184.389,294.572 184.088 C 294.853 184.028,295.290 183.981,295.542 183.983 L 296.000 183.987 296.000 182.410 C 296.000 181.120,295.955 180.833,295.750 180.833 C 295.612 180.833,295.500 180.911,295.500 181.006 C 295.500 181.125,295.400 181.125,295.178 181.006 C 294.711 180.756,293.964 180.794,293.544 181.088 M297.167 182.446 C 297.167 183.716,297.212 184.000,297.417 184.000 C 297.611 184.000,297.667 183.778,297.667 183.000 C 297.667 182.222,297.741 181.926,298.000 181.667 C 298.739 180.928,299.167 181.369,299.167 182.867 C 299.167 183.763,299.219 184.000,299.417 184.000 C 299.618 184.000,299.667 183.744,299.667 182.692 C 299.667 181.046,299.484 180.831,298.117 180.867 L 297.167 180.892 297.167 182.446 M308.576 181.242 C 307.584 182.234,308.433 184.358,309.714 184.091 C 310.009 184.030,310.456 183.981,310.708 183.983 L 311.167 183.987 311.167 182.410 C 311.167 181.120,311.121 180.833,310.917 180.833 C 310.779 180.833,310.667 180.911,310.667 181.006 C 310.667 181.125,310.567 181.125,310.344 181.006 C 309.777 180.702,309.014 180.805,308.576 181.242 M312.500 182.246 C 312.500 183.854,312.832 184.328,313.792 184.093 C 314.044 184.032,314.419 183.985,314.625 183.989 C 314.988 183.996,315.000 183.946,315.000 182.415 C 315.000 181.120,314.955 180.833,314.750 180.833 C 314.556 180.833,314.500 181.055,314.500 181.824 C 314.500 184.090,313.121 184.357,313.035 182.107 C 312.960 180.163,312.500 180.283,312.500 182.246 M316.321 181.321 C 315.947 181.694,315.833 181.961,315.833 182.465 C 315.833 184.020,317.463 184.680,318.570 183.573 C 319.184 182.959,318.614 182.783,317.849 183.348 C 317.287 183.764,316.805 183.569,316.485 182.797 C 316.084 181.828,317.160 181.019,318.012 181.649 C 318.867 182.281,319.229 181.835,318.394 181.179 C 317.745 180.668,316.916 180.725,316.321 181.321 M320.210 181.088 C 319.468 181.608,319.394 183.019,320.076 183.660 C 321.399 184.903,323.435 183.313,322.596 181.692 C 322.150 180.829,320.997 180.537,320.210 181.088 M350.000 183.333 C 350.000 185.722,350.015 185.833,350.333 185.833 C 350.629 185.833,350.667 185.722,350.667 184.848 L 350.667 183.862 351.137 184.040 C 352.789 184.663,353.947 182.147,352.514 181.047 C 352.172 180.784,351.124 180.776,350.867 181.033 C 350.711 181.189,350.667 181.189,350.667 181.033 C 350.667 180.923,350.517 180.833,350.333 180.833 C 350.015 180.833,350.000 180.944,350.000 183.333 M354.167 182.433 C 354.167 183.889,354.190 184.000,354.500 184.000 C 354.799 184.000,354.833 183.889,354.833 182.929 C 354.833 181.802,355.110 181.258,355.588 181.442 C 355.755 181.506,355.833 181.426,355.833 181.194 C 355.833 180.894,355.731 180.853,355.000 180.859 L 354.167 180.865 354.167 182.433 M356.500 182.417 C 356.500 183.713,356.545 184.000,356.750 184.000 C 356.955 184.000,357.000 183.713,357.000 182.417 C 357.000 181.120,356.955 180.833,356.750 180.833 C 356.545 180.833,356.500 181.120,356.500 182.417 M358.167 182.434 C 358.167 183.889,358.190 184.000,358.500 184.000 C 358.797 184.000,358.833 183.889,358.833 182.989 C 358.833 181.837,359.036 181.333,359.500 181.333 C 359.964 181.333,360.167 181.837,360.167 182.989 C 360.167 183.777,360.222 184.000,360.417 184.000 C 360.611 184.000,360.667 183.777,360.667 182.989 C 360.667 181.837,360.869 181.333,361.333 181.333 C 361.797 181.333,362.000 181.837,362.000 182.989 C 362.000 183.777,362.055 184.000,362.250 184.000 C 362.611 184.000,362.604 181.722,362.241 181.204 C 361.954 180.795,361.044 180.689,360.707 181.026 C 360.564 181.169,360.456 181.171,360.289 181.032 C 360.165 180.929,359.637 180.850,359.115 180.856 L 358.167 180.868 358.167 182.434 M363.500 182.417 C 363.500 183.889,363.523 184.000,363.833 184.000 C 364.143 184.000,364.167 183.889,364.167 182.417 C 364.167 180.944,364.143 180.833,363.833 180.833 C 363.523 180.833,363.500 180.944,363.500 182.417 M367.667 182.417 C 367.667 183.713,367.712 184.000,367.917 184.000 C 368.121 184.000,368.167 183.713,368.167 182.417 C 368.167 181.120,368.121 180.833,367.917 180.833 C 367.712 180.833,367.667 181.120,367.667 182.417 M369.167 181.030 C 369.167 181.294,370.394 184.333,370.500 184.332 C 370.565 184.330,371.281 182.513,371.796 181.042 C 371.838 180.922,371.733 180.833,371.548 180.833 C 371.306 180.833,371.157 181.056,370.940 181.744 C 370.551 182.979,370.435 182.990,370.012 181.830 C 369.690 180.946,369.167 180.451,369.167 181.030 M372.884 181.236 C 371.752 182.209,372.689 184.339,374.148 184.107 C 376.074 183.801,375.955 180.833,374.017 180.833 C 373.554 180.833,373.210 180.956,372.884 181.236 M376.407 181.242 C 376.015 181.839,376.234 182.268,377.097 182.597 C 377.939 182.919,378.044 183.024,377.899 183.402 C 377.770 183.738,377.021 183.749,376.894 183.417 C 376.771 183.097,376.167 183.089,376.167 183.407 C 376.167 183.540,376.333 183.765,376.537 183.907 C 377.375 184.494,378.557 184.016,378.468 183.126 C 378.416 182.614,378.330 182.532,377.419 182.132 C 377.145 182.012,376.897 181.793,376.869 181.645 C 376.795 181.263,377.326 181.108,377.662 181.413 C 378.006 181.724,378.333 181.742,378.333 181.450 C 378.333 180.731,376.847 180.570,376.407 181.242 M379.333 182.433 C 379.333 183.889,379.357 184.000,379.667 184.000 C 379.965 184.000,380.000 183.889,380.000 182.929 C 380.000 181.802,380.276 181.258,380.755 181.442 C 380.921 181.506,381.000 181.426,381.000 181.194 C 381.000 180.894,380.898 180.853,380.167 180.859 L 379.333 180.865 379.333 182.433 M381.909 181.242 C 380.455 182.697,382.521 185.053,384.039 183.672 C 384.671 183.097,384.207 182.914,383.422 183.429 C 382.964 183.729,382.465 183.557,382.165 182.996 C 381.996 182.681,382.045 182.667,383.327 182.667 C 384.655 182.667,384.667 182.663,384.667 182.237 C 384.667 181.042,382.787 180.364,381.909 181.242 M385.634 181.042 C 384.960 181.577,385.212 182.222,386.274 182.677 C 386.815 182.909,387.009 183.081,386.969 183.291 C 386.896 183.678,386.036 183.788,385.898 183.428 C 385.789 183.143,385.167 183.063,385.167 183.333 C 385.167 183.710,385.852 184.167,386.417 184.167 C 387.961 184.167,388.101 182.817,386.622 182.183 C 385.794 181.829,385.684 181.665,386.062 181.351 C 386.304 181.150,386.833 181.265,386.833 181.518 C 386.833 181.600,386.983 181.667,387.167 181.667 C 387.567 181.667,387.594 181.451,387.238 181.095 C 386.924 180.782,386.001 180.751,385.634 181.042 M263.258 181.739 C 263.628 182.304,263.505 182.985,262.958 183.391 L 262.500 183.732 262.042 183.391 C 261.171 182.744,261.485 181.333,262.500 181.333 C 262.838 181.333,263.076 181.461,263.258 181.739 M275.875 181.708 L 276.250 182.083 275.708 182.136 C 275.410 182.164,274.923 182.164,274.625 182.136 L 274.083 182.083 274.458 181.708 C 274.665 181.502,274.983 181.333,275.167 181.333 C 275.350 181.333,275.669 181.502,275.875 181.708 M285.071 181.595 C 286.042 182.565,284.897 184.254,283.902 183.320 C 283.407 182.855,283.377 182.123,283.833 181.667 C 284.234 181.266,284.715 181.239,285.071 181.595 M295.071 181.595 C 296.042 182.565,294.897 184.254,293.902 183.320 C 293.407 182.855,293.377 182.123,293.833 181.667 C 294.234 181.266,294.715 181.239,295.071 181.595 M310.333 181.667 C 310.912 182.246,310.439 183.667,309.667 183.667 C 309.325 183.667,308.667 182.849,308.667 182.424 C 308.667 181.917,309.202 181.333,309.667 181.333 C 309.850 181.333,310.150 181.483,310.333 181.667 M321.925 181.739 C 322.295 182.304,322.171 182.985,321.625 183.391 L 321.167 183.732 320.708 183.391 C 319.837 182.744,320.151 181.333,321.167 181.333 C 321.504 181.333,321.742 181.461,321.925 181.739 M352.235 181.650 C 352.684 182.146,352.534 183.174,351.967 183.491 C 351.075 183.989,350.280 182.626,350.926 181.704 C 351.244 181.250,351.850 181.225,352.235 181.650 M374.667 181.667 C 375.232 182.232,374.776 183.667,374.030 183.667 C 373.612 183.667,373.000 182.949,373.000 182.459 C 373.000 181.447,373.981 180.981,374.667 181.667 M383.695 181.609 C 384.184 182.052,384.058 182.167,383.083 182.167 C 382.394 182.167,382.167 182.107,382.167 181.925 C 382.167 181.371,383.197 181.158,383.695 181.609 M348.250 182.428 C 348.250 182.603,348.119 182.771,347.958 182.802 C 347.665 182.858,347.536 182.353,347.781 182.108 C 347.978 181.911,348.250 182.097,348.250 182.428 M11.628 184.723 C 11.152 185.164,10.757 191.200,11.139 192.186 C 11.859 194.044,13.363 193.536,13.500 191.390 L 13.583 190.083 202.917 190.083 L 392.250 190.083 392.386 191.417 C 392.565 193.158,393.337 193.726,394.302 192.827 C 394.750 192.409,394.879 185.354,394.449 184.766 C 393.721 183.771,392.577 184.493,392.424 186.044 C 392.358 186.707,392.227 187.344,392.132 187.458 C 391.868 187.777,14.121 187.764,13.857 187.445 C 13.756 187.324,13.604 186.731,13.518 186.129 C 13.258 184.290,12.613 183.810,11.628 184.723 " stroke="none" fill="#5c3535" fill-rule="evenodd"></path><path id="path1" d="M362.333 38.832 C 358.441 40.269,354.036 47.104,351.108 56.250 C 346.969 69.181,350.128 79.601,357.583 77.606 C 366.918 75.109,377.082 51.585,372.383 43.354 C 370.291 39.690,365.658 37.605,362.333 38.832 M324.450 39.605 C 324.114 39.942,324.611 41.064,327.915 47.417 C 328.487 48.517,329.800 51.067,330.832 53.083 C 331.865 55.100,333.141 57.575,333.668 58.583 C 338.074 67.014,338.062 66.981,337.292 68.505 C 336.638 69.799,335.424 70.314,334.343 69.755 C 333.434 69.285,333.556 69.487,322.418 50.083 C 319.769 45.468,318.992 44.239,318.701 44.197 C 318.475 44.164,318.333 44.231,318.333 44.372 C 318.333 44.565,321.565 51.901,322.942 54.833 C 323.179 55.337,323.654 56.387,323.998 57.167 C 324.662 58.672,329.459 69.235,330.052 70.500 C 331.182 72.909,329.703 75.731,327.612 75.153 C 326.567 74.865,326.225 74.337,322.917 67.917 C 321.526 65.217,320.228 62.719,318.501 59.417 C 318.069 58.592,316.651 55.879,315.350 53.388 C 312.838 48.583,312.665 48.322,312.236 48.679 C 311.774 49.062,311.952 49.514,315.420 56.750 C 316.035 58.033,316.933 59.908,317.416 60.917 C 317.899 61.925,318.835 63.875,319.497 65.250 C 321.154 68.696,324.078 74.951,324.843 76.690 C 327.813 83.437,330.207 84.455,335.127 81.062 C 340.520 77.342,342.100 75.561,342.415 72.844 C 342.698 70.409,342.499 70.000,332.788 53.083 C 325.654 40.657,324.792 39.263,324.450 39.605 M370.730 45.875 C 372.903 49.311,369.984 59.600,364.877 66.500 C 362.434 69.800,357.468 73.632,355.324 73.871 C 354.753 73.935,354.644 73.248,355.199 73.076 C 363.829 70.405,372.388 55.456,370.269 46.754 C 369.959 45.480,370.195 45.030,370.730 45.875 M350.191 76.292 C 350.051 76.558,349.378 78.148,348.411 80.500 C 348.204 81.004,347.606 82.429,347.083 83.667 C 346.560 84.904,345.961 86.329,345.752 86.833 C 345.209 88.140,342.431 94.565,340.922 98.000 C 337.922 104.834,338.013 104.629,336.589 107.750 C 336.338 108.300,335.645 109.837,335.050 111.167 C 334.454 112.496,333.637 114.286,333.234 115.144 C 332.830 116.002,332.500 116.729,332.500 116.759 C 332.500 116.812,330.762 120.552,329.212 123.833 C 328.801 124.704,328.255 125.867,328.000 126.417 C 327.509 127.476,326.930 128.697,324.129 134.583 C 321.068 141.015,320.718 143.049,322.152 146.083 C 323.654 149.263,326.122 149.581,328.759 146.935 C 330.292 145.397,330.960 144.083,332.835 138.917 C 334.517 134.283,337.388 126.513,338.009 124.917 C 338.187 124.458,339.282 121.608,340.441 118.583 C 341.601 115.558,342.866 112.258,343.253 111.250 C 344.343 108.414,348.758 97.356,349.841 94.750 C 353.236 86.585,355.840 80.334,356.058 79.825 C 356.392 79.041,356.260 78.892,355.146 78.802 C 353.866 78.698,352.442 77.970,351.397 76.886 C 350.445 75.898,350.408 75.880,350.191 76.292 M337.634 80.406 C 336.309 81.362,335.131 82.259,335.014 82.400 C 334.823 82.630,340.406 94.120,341.012 94.742 C 341.277 95.014,341.448 94.689,343.111 90.750 L 344.722 86.933 343.901 85.341 C 340.941 79.603,340.428 78.667,340.245 78.667 C 340.133 78.667,338.958 79.449,337.634 80.406 M349.682 97.528 C 349.597 97.742,349.267 98.554,348.948 99.333 C 346.039 106.439,346.209 105.327,347.602 108.169 C 349.085 111.195,351.233 115.634,351.956 117.167 C 352.280 117.854,353.097 119.569,353.772 120.978 C 354.448 122.387,355.000 123.562,355.000 123.589 C 355.000 123.615,355.450 124.588,356.000 125.750 C 356.550 126.912,357.000 127.885,357.000 127.913 C 357.000 127.940,357.366 128.740,357.812 129.690 C 358.717 131.613,362.213 139.303,363.399 141.977 C 366.439 148.835,372.314 149.931,373.507 143.864 C 374.006 141.328,373.477 138.919,371.809 136.127 C 370.104 133.274,363.725 122.076,360.629 116.500 C 357.203 110.330,355.752 107.663,352.060 100.754 C 350.123 97.130,349.938 96.879,349.682 97.528 " stroke="none" fill="#bc9c34" fill-rule="evenodd"></path><path id="path2" d="M393.208 2.448 C 393.369 2.490,393.631 2.490,393.792 2.448 C 393.952 2.406,393.821 2.372,393.500 2.372 C 393.179 2.372,393.048 2.406,393.208 2.448 M392.372 3.667 C 392.372 3.987,392.406 4.119,392.448 3.958 C 392.490 3.798,392.490 3.535,392.448 3.375 C 392.406 3.215,392.372 3.346,392.372 3.667 M11.050 5.667 C 11.050 6.171,11.081 6.377,11.119 6.125 C 11.158 5.873,11.158 5.460,11.119 5.208 C 11.081 4.956,11.050 5.162,11.050 5.667 M108.445 5.625 C 160.435 5.648,245.560 5.648,297.611 5.625 C 349.663 5.602,307.125 5.583,203.083 5.583 C 99.042 5.583,56.454 5.602,108.445 5.625 M254.074 8.125 C 364.202 8.158,392.094 8.209,392.211 8.375 C 392.320 8.529,392.341 8.518,392.290 8.333 C 392.230 8.111,376.740 8.083,254.153 8.083 L 116.083 8.083 254.074 8.125 M13.553 9.167 C 13.553 9.762,13.584 10.006,13.621 9.708 C 13.658 9.410,13.658 8.923,13.621 8.625 C 13.584 8.327,13.553 8.571,13.553 9.167 M392.372 10.167 C 392.372 10.487,392.406 10.619,392.448 10.458 C 392.490 10.298,392.490 10.035,392.448 9.875 C 392.406 9.715,392.372 9.846,392.372 10.167 M106.216 22.957 C 106.931 22.989,108.056 22.988,108.716 22.957 C 109.376 22.925,108.792 22.900,107.417 22.900 C 106.042 22.900,105.501 22.926,106.216 22.957 M101.711 23.120 C 101.964 23.158,102.339 23.157,102.544 23.117 C 102.749 23.078,102.542 23.046,102.083 23.048 C 101.625 23.049,101.457 23.081,101.711 23.120 M112.292 23.118 C 112.498 23.157,112.835 23.157,113.042 23.118 C 113.248 23.078,113.079 23.045,112.667 23.045 C 112.254 23.045,112.085 23.078,112.292 23.118 M100.627 25.951 C 100.834 25.991,101.134 25.990,101.294 25.948 C 101.453 25.906,101.283 25.874,100.917 25.875 C 100.550 25.877,100.420 25.911,100.627 25.951 M108.708 25.948 C 108.869 25.990,109.131 25.990,109.292 25.948 C 109.452 25.906,109.321 25.872,109.000 25.872 C 108.679 25.872,108.548 25.906,108.708 25.948 M96.375 26.282 C 96.535 26.323,96.798 26.323,96.958 26.282 C 97.119 26.240,96.987 26.205,96.667 26.205 C 96.346 26.205,96.215 26.240,96.375 26.282 M142.083 35.167 C 142.535 35.625,142.942 36.000,142.987 36.000 C 143.033 36.000,142.701 35.625,142.250 35.167 C 141.799 34.708,141.392 34.333,141.346 34.333 C 141.300 34.333,141.632 34.708,142.083 35.167 M136.000 35.552 C 136.000 35.581,136.244 35.825,136.542 36.094 L 137.083 36.583 136.594 36.042 C 136.138 35.537,136.000 35.423,136.000 35.552 M138.000 37.552 C 138.000 37.581,138.244 37.825,138.542 38.094 L 139.083 38.583 138.594 38.042 C 138.138 37.537,138.000 37.423,138.000 37.552 M93.542 45.782 C 93.702 45.823,93.965 45.823,94.125 45.782 C 94.285 45.740,94.154 45.705,93.833 45.705 C 93.513 45.705,93.381 45.740,93.542 45.782 M37.500 49.083 C 37.095 49.496,36.801 49.833,36.847 49.833 C 36.893 49.833,37.262 49.496,37.667 49.083 C 38.072 48.671,38.365 48.333,38.319 48.333 C 38.274 48.333,37.905 48.671,37.500 49.083 M91.413 61.333 C 91.413 68.438,91.433 71.344,91.458 67.792 C 91.483 64.240,91.483 58.427,91.458 54.875 C 91.433 51.323,91.413 54.229,91.413 61.333 M96.243 57.167 C 96.243 60.879,96.265 62.398,96.291 60.542 C 96.318 58.685,96.318 55.648,96.291 53.792 C 96.265 51.935,96.243 53.454,96.243 57.167 M35.075 51.542 L 34.417 52.250 35.125 51.591 C 35.784 50.978,35.910 50.833,35.784 50.833 C 35.757 50.833,35.438 51.152,35.075 51.542 M145.548 55.083 C 145.549 55.542,145.581 55.709,145.620 55.456 C 145.658 55.203,145.657 54.828,145.617 54.623 C 145.578 54.418,145.546 54.625,145.548 55.083 M151.212 55.500 C 151.212 55.913,151.245 56.081,151.284 55.875 C 151.324 55.669,151.324 55.331,151.284 55.125 C 151.245 54.919,151.212 55.087,151.212 55.500 M145.548 57.583 C 145.549 58.042,145.581 58.209,145.620 57.956 C 145.658 57.703,145.657 57.328,145.617 57.123 C 145.578 56.918,145.546 57.125,145.548 57.583 M151.212 57.667 C 151.212 58.079,151.245 58.248,151.284 58.042 C 151.324 57.835,151.324 57.498,151.284 57.292 C 151.245 57.085,151.212 57.254,151.212 57.667 M31.055 67.583 C 31.055 68.225,31.086 68.467,31.122 68.121 C 31.158 67.775,31.157 67.250,31.120 66.955 C 31.083 66.659,31.054 66.942,31.055 67.583 M225.889 76.333 C 225.889 77.021,225.919 77.302,225.955 76.958 C 225.991 76.615,225.991 76.052,225.955 75.708 C 225.919 75.365,225.889 75.646,225.889 76.333 M221.872 79.667 C 221.872 79.987,221.906 80.119,221.948 79.958 C 221.990 79.798,221.990 79.535,221.948 79.375 C 221.906 79.215,221.872 79.346,221.872 79.667 M221.712 82.833 C 221.712 83.246,221.745 83.415,221.784 83.208 C 221.824 83.002,221.824 82.665,221.784 82.458 C 221.745 82.252,221.712 82.421,221.712 82.833 M132.079 86.042 L 130.750 87.417 132.125 86.087 C 133.402 84.853,133.576 84.667,133.454 84.667 C 133.429 84.667,132.811 85.285,132.079 86.042 M239.460 85.285 C 239.668 85.324,239.968 85.323,240.127 85.281 C 240.286 85.239,240.117 85.207,239.750 85.209 C 239.383 85.211,239.253 85.245,239.460 85.285 M217.460 85.451 C 217.668 85.491,217.968 85.490,218.127 85.448 C 218.286 85.406,218.117 85.374,217.750 85.375 C 217.383 85.377,217.253 85.411,217.460 85.451 M229.635 85.458 C 230.763 85.487,232.563 85.487,233.635 85.458 C 234.706 85.429,233.783 85.405,231.583 85.405 C 229.383 85.405,228.506 85.429,229.635 85.458 M138.242 86.708 L 137.583 87.417 138.292 86.758 C 138.681 86.395,139.000 86.077,139.000 86.050 C 139.000 85.923,138.855 86.050,138.242 86.708 M239.463 87.622 C 239.855 87.657,240.455 87.657,240.796 87.621 C 241.137 87.585,240.817 87.557,240.083 87.557 C 239.350 87.558,239.071 87.587,239.463 87.622 M215.708 87.791 C 216.419 87.822,217.581 87.822,218.292 87.791 C 219.002 87.759,218.421 87.734,217.000 87.734 C 215.579 87.734,214.998 87.759,215.708 87.791 M235.875 87.786 C 236.127 87.824,236.540 87.824,236.792 87.786 C 237.044 87.748,236.838 87.717,236.333 87.717 C 235.829 87.717,235.623 87.748,235.875 87.786 M221.205 90.000 C 221.205 90.321,221.240 90.452,221.282 90.292 C 221.323 90.131,221.323 89.869,221.282 89.708 C 221.240 89.548,221.205 89.679,221.205 90.000 M134.658 90.292 L 134.083 90.917 134.708 90.342 C 135.290 89.808,135.410 89.667,135.283 89.667 C 135.255 89.667,134.974 89.948,134.658 90.292 M225.726 91.917 C 225.725 92.742,225.754 93.100,225.788 92.713 C 225.823 92.327,225.824 91.652,225.789 91.213 C 225.755 90.775,225.726 91.092,225.726 91.917 M221.057 95.250 C 221.058 95.983,221.087 96.263,221.122 95.871 C 221.157 95.479,221.157 94.879,221.121 94.537 C 221.085 94.196,221.057 94.517,221.057 95.250 M225.553 97.000 C 225.553 97.596,225.584 97.840,225.621 97.542 C 225.658 97.244,225.658 96.756,225.621 96.458 C 225.584 96.160,225.553 96.404,225.553 97.000 M306.208 97.948 C 306.369 97.990,306.631 97.990,306.792 97.948 C 306.952 97.906,306.821 97.872,306.500 97.872 C 306.179 97.872,306.048 97.906,306.208 97.948 M185.906 98.875 L 185.417 99.417 185.958 98.927 C 186.463 98.471,186.577 98.333,186.448 98.333 C 186.419 98.333,186.175 98.577,185.906 98.875 M156.375 98.948 C 156.535 98.990,156.798 98.990,156.958 98.948 C 157.119 98.906,156.987 98.872,156.667 98.872 C 156.346 98.872,156.215 98.906,156.375 98.948 M209.375 98.948 C 209.535 98.990,209.798 98.990,209.958 98.948 C 210.119 98.906,209.987 98.872,209.667 98.872 C 209.346 98.872,209.215 98.906,209.375 98.948 M245.042 98.948 C 245.202 98.990,245.465 98.990,245.625 98.948 C 245.785 98.906,245.654 98.872,245.333 98.872 C 245.012 98.872,244.881 98.906,245.042 98.948 M181.333 99.052 C 181.333 99.081,181.577 99.325,181.875 99.594 L 182.417 100.083 181.927 99.542 C 181.471 99.037,181.333 98.923,181.333 99.052 M220.888 100.750 C 220.889 101.392,220.919 101.634,220.955 101.288 C 220.991 100.942,220.990 100.417,220.954 100.121 C 220.917 99.825,220.887 100.108,220.888 100.750 M256.379 100.667 C 256.379 101.079,256.411 101.248,256.451 101.042 C 256.491 100.835,256.491 100.498,256.451 100.292 C 256.411 100.085,256.379 100.254,256.379 100.667 M259.552 100.917 C 259.553 101.467,259.584 101.672,259.621 101.372 C 259.658 101.072,259.657 100.622,259.619 100.372 C 259.581 100.122,259.551 100.367,259.552 100.917 M196.560 102.000 C 196.560 102.871,196.588 103.227,196.623 102.792 C 196.657 102.356,196.657 101.644,196.623 101.208 C 196.588 100.773,196.560 101.129,196.560 102.000 M158.555 101.750 C 158.555 102.392,158.586 102.634,158.622 102.288 C 158.658 101.942,158.657 101.417,158.620 101.121 C 158.583 100.825,158.554 101.108,158.555 101.750 M247.221 101.750 C 247.222 102.392,247.252 102.634,247.288 102.288 C 247.324 101.942,247.324 101.417,247.287 101.121 C 247.250 100.825,247.221 101.108,247.221 101.750 M133.705 103.167 C 133.705 103.487,133.740 103.619,133.782 103.458 C 133.823 103.298,133.823 103.035,133.782 102.875 C 133.740 102.715,133.705 102.846,133.705 103.167 M211.552 103.750 C 211.553 104.300,211.584 104.505,211.621 104.205 C 211.658 103.906,211.657 103.456,211.619 103.205 C 211.581 102.955,211.551 103.200,211.552 103.750 M225.224 104.583 C 225.224 105.317,225.254 105.596,225.289 105.204 C 225.324 104.812,225.324 104.212,225.288 103.871 C 225.252 103.529,225.223 103.850,225.224 104.583 M286.888 104.917 C 286.889 105.558,286.919 105.800,286.955 105.455 C 286.991 105.109,286.990 104.584,286.954 104.288 C 286.917 103.992,286.887 104.275,286.888 104.917 M153.542 105.250 C 153.544 105.617,153.578 105.747,153.618 105.540 C 153.658 105.332,153.656 105.032,153.615 104.873 C 153.573 104.714,153.540 104.883,153.542 105.250 M158.383 105.500 C 158.383 106.004,158.415 106.210,158.453 105.958 C 158.491 105.706,158.491 105.294,158.453 105.042 C 158.415 104.790,158.383 104.996,158.383 105.500 M179.059 106.083 C 179.059 106.908,179.087 107.267,179.122 106.880 C 179.157 106.493,179.157 105.818,179.123 105.380 C 179.088 104.942,179.060 105.258,179.059 106.083 M242.209 105.250 C 242.211 105.617,242.245 105.747,242.285 105.540 C 242.324 105.332,242.323 105.032,242.281 104.873 C 242.239 104.714,242.207 104.883,242.209 105.250 M247.050 105.500 C 247.050 106.004,247.081 106.210,247.119 105.958 C 247.158 105.706,247.158 105.294,247.119 105.042 C 247.081 104.790,247.050 104.996,247.050 105.500 M220.717 105.667 C 220.717 106.171,220.748 106.377,220.786 106.125 C 220.824 105.873,220.824 105.460,220.786 105.208 C 220.748 104.956,220.717 105.162,220.717 105.667 M289.387 106.333 C 289.387 106.929,289.417 107.173,289.454 106.875 C 289.491 106.577,289.491 106.090,289.454 105.792 C 289.417 105.494,289.387 105.737,289.387 106.333 M293.223 106.667 C 293.223 107.354,293.252 107.635,293.288 107.292 C 293.324 106.948,293.324 106.385,293.288 106.042 C 293.252 105.698,293.223 105.979,293.223 106.667 M138.542 105.782 C 138.702 105.823,138.965 105.823,139.125 105.782 C 139.285 105.740,139.154 105.705,138.833 105.705 C 138.512 105.705,138.381 105.740,138.542 105.782 M297.577 107.708 L 296.750 108.583 297.625 107.756 C 298.106 107.301,298.500 106.908,298.500 106.881 C 298.500 106.757,298.346 106.895,297.577 107.708 M139.748 107.957 C 140.113 107.994,140.526 108.113,140.665 108.221 C 140.885 108.392,140.887 108.379,140.688 108.125 C 140.528 107.921,140.253 107.842,139.771 107.861 L 139.083 107.889 139.748 107.957 M145.053 109.000 C 145.053 109.596,145.084 109.840,145.121 109.542 C 145.158 109.244,145.158 108.756,145.121 108.458 C 145.084 108.160,145.053 108.404,145.053 109.000 M205.906 109.042 L 205.417 109.583 205.958 109.094 C 206.463 108.638,206.577 108.500,206.448 108.500 C 206.419 108.500,206.175 108.744,205.906 109.042 M239.661 110.292 L 238.750 111.250 239.708 110.339 C 240.599 109.493,240.743 109.333,240.619 109.333 C 240.593 109.333,240.162 109.765,239.661 110.292 M179.052 110.583 C 179.053 111.133,179.084 111.338,179.121 111.039 C 179.158 110.739,179.157 110.289,179.119 110.039 C 179.081 109.788,179.051 110.033,179.052 110.583 M285.917 111.333 C 286.275 111.700,286.605 112.000,286.651 112.000 C 286.697 112.000,286.441 111.700,286.083 111.333 C 285.725 110.967,285.395 110.667,285.349 110.667 C 285.303 110.667,285.559 110.967,285.917 111.333 M281.555 111.917 C 281.555 112.558,281.586 112.800,281.622 112.455 C 281.658 112.109,281.657 111.584,281.620 111.288 C 281.583 110.992,281.554 111.275,281.555 111.917 M164.409 112.375 L 163.750 113.083 164.458 112.425 C 164.848 112.062,165.167 111.743,165.167 111.716 C 165.167 111.590,165.022 111.716,164.409 112.375 M253.075 112.375 L 252.417 113.083 253.125 112.425 C 253.515 112.062,253.833 111.743,253.833 111.716 C 253.833 111.590,253.688 111.716,253.075 112.375 M205.073 112.708 L 204.583 113.250 205.125 112.760 C 205.630 112.304,205.743 112.167,205.615 112.167 C 205.586 112.167,205.342 112.410,205.073 112.708 M195.705 113.000 C 195.705 113.321,195.740 113.452,195.782 113.292 C 195.823 113.131,195.823 112.869,195.782 112.708 C 195.740 112.548,195.705 112.679,195.705 113.000 M303.906 113.542 L 303.417 114.083 303.958 113.594 C 304.463 113.138,304.577 113.000,304.448 113.000 C 304.419 113.000,304.175 113.244,303.906 113.542 M87.544 113.786 C 87.797 113.825,88.172 113.824,88.377 113.784 C 88.582 113.744,88.375 113.713,87.917 113.714 C 87.458 113.716,87.291 113.748,87.544 113.786 M168.220 115.167 C 168.220 115.763,168.250 116.006,168.287 115.708 C 168.324 115.410,168.324 114.923,168.287 114.625 C 168.250 114.327,168.220 114.571,168.220 115.167 M180.875 114.615 C 181.035 114.657,181.298 114.657,181.458 114.615 C 181.619 114.573,181.487 114.539,181.167 114.539 C 180.846 114.539,180.715 114.573,180.875 114.615 M140.050 116.167 C 140.050 116.671,140.081 116.877,140.119 116.625 C 140.158 116.373,140.158 115.960,140.119 115.708 C 140.081 115.456,140.050 115.662,140.050 116.167 M208.167 115.385 C 208.167 115.414,208.410 115.658,208.708 115.927 L 209.250 116.417 208.760 115.875 C 208.304 115.370,208.167 115.257,208.167 115.385 M312.555 116.583 C 312.555 117.225,312.586 117.467,312.622 117.121 C 312.658 116.775,312.657 116.250,312.620 115.955 C 312.583 115.659,312.554 115.942,312.555 116.583 M144.381 116.917 C 144.382 117.375,144.415 117.543,144.453 117.289 C 144.491 117.036,144.490 116.661,144.451 116.456 C 144.411 116.251,144.380 116.458,144.381 116.917 M308.383 117.000 C 308.383 117.504,308.415 117.710,308.453 117.458 C 308.491 117.206,308.491 116.794,308.453 116.542 C 308.415 116.290,308.383 116.496,308.383 117.000 M148.161 117.458 L 147.250 118.417 148.208 117.506 C 149.099 116.659,149.243 116.500,149.119 116.500 C 149.093 116.500,148.662 116.931,148.161 117.458 M159.044 117.620 C 159.297 117.658,159.672 117.657,159.877 117.617 C 160.082 117.578,159.875 117.546,159.417 117.548 C 158.958 117.549,158.791 117.581,159.044 117.620 M212.042 117.619 C 212.294 117.658,212.706 117.658,212.958 117.619 C 213.210 117.581,213.004 117.550,212.500 117.550 C 211.996 117.550,211.790 117.581,212.042 117.619 M247.711 117.620 C 247.964 117.658,248.339 117.657,248.544 117.617 C 248.749 117.578,248.542 117.546,248.083 117.548 C 247.625 117.549,247.457 117.581,247.711 117.620 M149.500 119.583 C 149.095 119.996,148.801 120.333,148.847 120.333 C 148.893 120.333,149.262 119.996,149.667 119.583 C 150.072 119.171,150.365 118.833,150.319 118.833 C 150.274 118.833,149.905 119.171,149.500 119.583 M195.627 118.951 C 195.834 118.991,196.134 118.990,196.294 118.948 C 196.453 118.906,196.283 118.874,195.917 118.875 C 195.550 118.877,195.420 118.911,195.627 118.951 M283.627 118.951 C 283.834 118.991,284.134 118.990,284.294 118.948 C 284.453 118.906,284.283 118.874,283.917 118.875 C 283.550 118.877,283.420 118.911,283.627 118.951 M263.292 119.951 C 263.498 119.991,263.835 119.991,264.042 119.951 C 264.248 119.911,264.079 119.879,263.667 119.879 C 263.254 119.879,263.085 119.911,263.292 119.951 M227.794 120.951 C 228.001 120.991,228.301 120.990,228.460 120.948 C 228.620 120.906,228.450 120.874,228.083 120.875 C 227.717 120.877,227.586 120.911,227.794 120.951 M198.792 130.284 C 198.998 130.324,199.335 130.324,199.542 130.284 C 199.748 130.245,199.579 130.212,199.167 130.212 C 198.754 130.212,198.585 130.245,198.792 130.284 M252.792 130.284 C 252.998 130.324,253.335 130.324,253.542 130.284 C 253.748 130.245,253.579 130.212,253.167 130.212 C 252.754 130.212,252.585 130.245,252.792 130.284 M175.717 133.000 C 175.717 133.504,175.748 133.710,175.786 133.458 C 175.824 133.206,175.824 132.794,175.786 132.542 C 175.748 132.290,175.717 132.496,175.717 133.000 M191.711 133.620 C 191.964 133.658,192.339 133.657,192.544 133.617 C 192.749 133.578,192.542 133.546,192.083 133.548 C 191.625 133.549,191.457 133.581,191.711 133.620 M207.044 133.620 C 207.297 133.658,207.672 133.657,207.877 133.617 C 208.082 133.578,207.875 133.546,207.417 133.548 C 206.958 133.549,206.791 133.581,207.044 133.620 M227.875 133.615 C 228.035 133.657,228.298 133.657,228.458 133.615 C 228.619 133.573,228.487 133.539,228.167 133.539 C 227.846 133.539,227.715 133.573,227.875 133.615 M233.877 133.620 C 234.131 133.658,234.506 133.657,234.711 133.617 C 234.916 133.578,234.708 133.546,234.250 133.548 C 233.792 133.549,233.624 133.581,233.877 133.620 M245.292 133.618 C 245.498 133.657,245.835 133.657,246.042 133.618 C 246.248 133.578,246.079 133.545,245.667 133.545 C 245.254 133.545,245.085 133.578,245.292 133.618 M196.365 134.375 L 196.417 135.083 197.500 135.097 L 198.583 135.111 197.542 135.048 L 196.500 134.984 196.500 134.417 L 196.500 133.849 197.542 133.790 L 198.583 133.731 197.449 133.699 L 196.314 133.667 196.365 134.375 M200.792 133.790 L 201.833 133.849 201.833 134.417 L 201.833 134.984 200.792 135.048 L 199.750 135.111 200.833 135.097 L 201.917 135.083 201.968 134.375 L 202.019 133.667 200.885 133.699 L 199.750 133.731 200.792 133.790 M210.611 133.778 C 210.550 133.839,210.500 134.143,210.500 134.454 C 210.500 134.839,210.439 134.982,210.308 134.901 C 210.188 134.827,210.160 134.855,210.234 134.974 C 210.474 135.362,210.667 135.150,210.667 134.500 C 210.667 133.850,210.681 133.833,211.247 133.833 L 211.828 133.833 211.875 138.375 L 211.922 142.917 211.961 138.292 L 212.000 133.667 211.361 133.667 C 211.010 133.667,210.672 133.717,210.611 133.778 M215.125 133.784 C 215.331 133.824,215.669 133.824,215.875 133.784 C 216.081 133.745,215.912 133.712,215.500 133.712 C 215.088 133.712,214.919 133.745,215.125 133.784 M220.958 133.784 C 221.165 133.824,221.502 133.824,221.708 133.784 C 221.915 133.745,221.746 133.712,221.333 133.712 C 220.921 133.712,220.752 133.745,220.958 133.784 M224.958 133.784 C 225.165 133.824,225.502 133.824,225.708 133.784 C 225.915 133.745,225.746 133.712,225.333 133.712 C 224.921 133.712,224.752 133.745,224.958 133.784 M237.333 134.344 C 237.333 134.984,237.309 135.022,237.042 134.812 C 236.777 134.605,236.771 134.611,236.979 134.875 C 237.340 135.335,237.500 135.220,237.500 134.500 C 237.500 133.850,237.514 133.833,238.081 133.833 L 238.661 133.833 238.710 138.333 L 238.758 142.833 238.754 138.292 L 238.750 133.750 238.042 133.699 L 237.333 133.648 237.333 134.344 M241.579 133.867 C 241.532 133.989,241.516 136.075,241.542 138.503 L 241.589 142.917 241.628 138.375 L 241.667 133.833 242.250 133.833 C 242.819 133.833,242.833 133.849,242.833 134.500 C 242.833 134.867,242.895 135.167,242.970 135.167 C 243.044 135.167,243.063 134.848,243.011 134.458 C 242.912 133.713,241.812 133.260,241.579 133.867 M250.365 134.375 L 250.417 135.083 251.500 135.097 L 252.583 135.111 251.542 135.048 L 250.500 134.984 250.500 134.417 L 250.500 133.849 251.542 133.790 L 252.583 133.731 251.449 133.699 L 250.314 133.667 250.365 134.375 M254.792 133.790 L 255.833 133.849 255.833 134.417 L 255.833 134.984 254.792 135.048 L 253.750 135.111 254.833 135.097 L 255.917 135.083 255.968 134.375 L 256.019 133.667 254.885 133.699 L 253.750 133.731 254.792 133.790 M182.875 134.948 C 183.035 134.990,183.298 134.990,183.458 134.948 C 183.619 134.906,183.487 134.872,183.167 134.872 C 182.846 134.872,182.715 134.906,182.875 134.948 M189.045 136.167 C 189.045 136.579,189.078 136.748,189.118 136.542 C 189.157 136.335,189.157 135.998,189.118 135.792 C 189.078 135.585,189.045 135.754,189.045 136.167 M170.544 137.286 C 170.797 137.325,171.172 137.324,171.377 137.284 C 171.582 137.244,171.375 137.213,170.917 137.214 C 170.458 137.216,170.291 137.248,170.544 137.286 M187.548 138.083 C 187.549 138.542,187.581 138.709,187.620 138.456 C 187.658 138.203,187.657 137.828,187.617 137.623 C 187.578 137.418,187.546 137.625,187.548 138.083 M181.625 137.624 C 182.473 137.654,183.860 137.654,184.708 137.624 C 185.556 137.594,184.862 137.569,183.167 137.569 C 181.471 137.569,180.777 137.594,181.625 137.624 M178.709 138.250 C 178.711 138.617,178.745 138.747,178.785 138.540 C 178.824 138.332,178.823 138.032,178.781 137.873 C 178.739 137.714,178.707 137.883,178.709 138.250 M230.042 138.250 C 230.044 138.617,230.078 138.747,230.118 138.540 C 230.158 138.332,230.156 138.032,230.115 137.873 C 230.073 137.714,230.040 137.883,230.042 138.250 M242.900 140.500 C 242.900 141.829,242.925 142.373,242.957 141.708 C 242.989 141.044,242.989 139.956,242.957 139.292 C 242.925 138.627,242.900 139.171,242.900 140.500 M179.667 141.219 C 179.667 141.248,179.910 141.491,180.208 141.760 L 180.750 142.250 180.260 141.708 C 179.804 141.203,179.667 141.090,179.667 141.219 M210.548 142.083 C 210.549 142.542,210.581 142.709,210.620 142.456 C 210.658 142.203,210.657 141.828,210.617 141.623 C 210.578 141.418,210.546 141.625,210.548 142.083 M231.000 141.385 C 231.000 141.414,231.244 141.658,231.542 141.927 L 232.083 142.417 231.594 141.875 C 231.138 141.370,231.000 141.257,231.000 141.385 M237.067 141.526 C 236.996 141.641,237.021 141.673,237.131 141.605 C 237.250 141.532,237.336 141.743,237.378 142.205 L 237.442 142.917 237.471 142.125 C 237.499 141.370,237.324 141.111,237.067 141.526 M182.877 142.953 C 183.131 142.991,183.506 142.990,183.711 142.951 C 183.916 142.911,183.708 142.880,183.250 142.881 C 182.792 142.882,182.624 142.915,182.877 142.953 M96.239 150.083 C 96.239 152.375,96.262 153.336,96.291 152.218 C 96.320 151.100,96.320 149.225,96.291 148.051 C 96.263 146.877,96.239 147.792,96.239 150.083 M225.860 174.114 C 225.835 174.770,225.801 174.816,225.292 174.879 L 224.750 174.947 225.297 174.973 C 225.921 175.004,226.056 174.798,225.955 173.974 C 225.892 173.464,225.884 173.476,225.860 174.114 M229.044 173.620 C 229.297 173.658,229.672 173.657,229.877 173.617 C 230.082 173.578,229.875 173.546,229.417 173.548 C 228.958 173.549,228.791 173.581,229.044 173.620 M343.000 174.083 C 343.311 174.404,343.603 174.667,343.649 174.667 C 343.695 174.667,343.478 174.404,343.167 174.083 C 342.856 173.762,342.564 173.500,342.518 173.500 C 342.472 173.500,342.689 173.762,343.000 174.083 M228.795 174.954 C 229.094 174.991,229.544 174.990,229.795 174.952 C 230.045 174.914,229.800 174.884,229.250 174.885 C 228.700 174.886,228.495 174.917,228.795 174.954 M225.329 176.594 L 225.824 176.687 225.878 178.927 L 225.931 181.167 225.924 178.875 L 225.917 176.583 225.375 176.542 C 224.850 176.501,224.848 176.503,225.329 176.594 M228.711 176.620 C 228.964 176.658,229.339 176.657,229.544 176.617 C 229.749 176.578,229.542 176.546,229.083 176.548 C 228.625 176.549,228.457 176.581,228.711 176.620 M331.564 178.667 C 331.564 179.813,331.591 180.281,331.623 179.708 C 331.656 179.135,331.656 178.198,331.623 177.625 C 331.591 177.052,331.564 177.521,331.564 178.667 M330.564 178.750 C 330.564 179.850,330.591 180.278,330.624 179.702 C 330.656 179.125,330.656 178.225,330.623 177.702 C 330.590 177.178,330.563 177.650,330.564 178.750 M339.730 178.750 C 339.731 179.850,339.758 180.278,339.790 179.702 C 339.823 179.125,339.823 178.225,339.790 177.702 C 339.757 177.178,339.730 177.650,339.730 178.750 M326.381 178.583 C 326.382 179.042,326.415 179.209,326.453 178.956 C 326.491 178.703,326.490 178.328,326.451 178.123 C 326.411 177.918,326.380 178.125,326.381 178.583 M338.205 178.667 C 338.205 178.987,338.240 179.119,338.282 178.958 C 338.323 178.798,338.323 178.535,338.282 178.375 C 338.240 178.215,338.205 178.346,338.205 178.667 M238.907 179.216 C 238.631 179.935,238.923 184.083,239.250 184.083 C 239.541 184.083,239.585 183.968,239.596 183.167 L 239.608 182.250 239.546 183.125 C 239.501 183.750,239.414 184.000,239.242 184.000 C 239.042 184.000,239.000 183.584,239.000 181.592 L 239.000 179.183 239.958 179.123 L 240.917 179.063 239.953 179.032 C 239.293 179.010,238.963 179.068,238.907 179.216 M270.292 179.121 C 270.590 179.158,271.077 179.158,271.375 179.121 C 271.673 179.084,271.429 179.053,270.833 179.053 C 270.237 179.053,269.994 179.084,270.292 179.121 M254.232 179.736 C 254.183 179.866,254.174 180.184,254.213 180.444 C 254.273 180.850,254.287 180.830,254.308 180.304 C 254.326 179.874,254.420 179.668,254.625 179.615 C 254.898 179.543,254.898 179.537,254.620 179.519 C 254.456 179.509,254.282 179.606,254.232 179.736 M280.899 179.736 C 280.849 179.866,280.840 180.184,280.879 180.444 C 280.940 180.850,280.954 180.830,280.975 180.304 C 280.993 179.874,281.087 179.668,281.292 179.615 C 281.565 179.543,281.565 179.537,281.286 179.519 C 281.123 179.509,280.949 179.606,280.899 179.736 M365.566 179.736 C 365.516 179.866,365.507 180.184,365.546 180.444 C 365.607 180.850,365.620 180.830,365.642 180.304 C 365.659 179.874,365.754 179.668,365.958 179.615 C 366.232 179.543,366.231 179.537,365.953 179.519 C 365.790 179.509,365.615 179.606,365.566 179.736 M388.737 179.724 C 388.685 179.860,388.674 180.184,388.713 180.444 C 388.772 180.842,388.787 180.817,388.808 180.292 C 388.825 179.870,388.912 179.667,389.073 179.667 C 389.227 179.667,389.339 179.892,389.385 180.292 L 389.456 180.917 389.437 180.251 C 389.416 179.558,388.939 179.198,388.737 179.724 M239.570 180.624 C 239.583 181.572,239.589 181.584,240.083 181.599 C 240.538 181.613,240.543 181.608,240.133 181.547 C 239.717 181.485,239.678 181.411,239.619 180.573 L 239.556 179.665 239.570 180.624 M219.667 180.719 C 219.667 180.748,219.910 180.991,220.208 181.260 L 220.750 181.750 220.260 181.208 C 219.804 180.703,219.667 180.590,219.667 180.719 M245.534 182.363 C 245.505 183.741,245.458 183.987,245.208 184.052 C 244.935 184.123,244.935 184.129,245.214 184.147 C 245.633 184.175,245.688 183.920,245.625 182.237 L 245.569 180.750 245.534 182.363 M256.868 182.363 C 256.838 183.741,256.791 183.987,256.542 184.052 C 256.268 184.123,256.269 184.129,256.547 184.147 C 256.966 184.175,257.021 183.920,256.958 182.237 L 256.902 180.750 256.868 182.363 M286.034 182.363 C 286.005 183.741,285.958 183.987,285.708 184.052 C 285.435 184.123,285.435 184.129,285.714 184.147 C 286.133 184.175,286.188 183.920,286.125 182.237 L 286.069 180.750 286.034 182.363 M287.057 182.083 C 287.058 182.817,287.087 183.096,287.122 182.704 C 287.157 182.312,287.157 181.712,287.121 181.371 C 287.085 181.029,287.057 181.350,287.057 182.083 M289.667 182.436 C 289.667 183.993,289.656 184.036,289.309 183.945 C 289.054 183.879,289.003 183.903,289.131 184.031 C 289.623 184.523,289.833 184.039,289.833 182.422 C 289.833 181.548,289.796 180.833,289.750 180.833 C 289.704 180.833,289.667 181.555,289.667 182.436 M296.034 182.363 C 296.005 183.741,295.958 183.987,295.708 184.052 C 295.435 184.123,295.435 184.129,295.714 184.147 C 296.133 184.175,296.188 183.920,296.125 182.237 L 296.069 180.750 296.034 182.363 M297.074 182.456 C 297.083 183.953,297.109 184.082,297.417 184.113 C 297.665 184.139,297.677 184.126,297.464 184.063 C 297.226 183.992,297.169 183.716,297.121 182.405 L 297.064 180.833 297.074 182.456 M311.201 182.363 C 311.172 183.741,311.124 183.987,310.875 184.052 C 310.602 184.123,310.602 184.129,310.880 184.147 C 311.300 184.175,311.355 183.920,311.291 182.237 L 311.235 180.750 311.201 182.363 M312.390 182.083 C 312.391 182.817,312.420 183.096,312.456 182.704 C 312.491 182.312,312.490 181.712,312.454 181.371 C 312.419 181.029,312.390 181.350,312.390 182.083 M315.000 182.436 C 315.000 183.993,314.990 184.036,314.643 183.945 C 314.387 183.879,314.337 183.903,314.465 184.031 C 314.956 184.523,315.167 184.039,315.167 182.422 C 315.167 181.548,315.129 180.833,315.083 180.833 C 315.037 180.833,315.000 181.555,315.000 182.436 M356.407 182.458 C 356.416 183.969,356.440 184.083,356.750 184.083 C 357.060 184.083,357.084 183.969,357.093 182.417 L 357.103 180.750 357.046 182.375 C 356.963 184.691,356.538 184.721,356.455 182.416 L 356.398 180.833 356.407 182.458 M368.201 182.363 C 368.172 183.741,368.124 183.987,367.875 184.052 C 367.602 184.123,367.602 184.129,367.880 184.147 C 368.300 184.175,368.355 183.920,368.291 182.237 L 368.235 180.750 368.201 182.363 M348.060 181.296 C 348.124 181.400,348.012 181.507,347.794 181.549 C 347.467 181.612,347.478 181.624,347.875 181.644 C 348.344 181.667,348.486 181.447,348.141 181.234 C 348.026 181.163,347.994 181.188,348.060 181.296 M254.240 182.748 C 254.248 183.808,254.301 184.083,254.500 184.098 C 254.637 184.107,254.659 184.085,254.548 184.047 C 254.421 184.003,254.325 183.505,254.288 182.697 L 254.230 181.417 254.240 182.748 M280.907 182.748 C 280.915 183.808,280.968 184.083,281.167 184.098 C 281.304 184.107,281.326 184.085,281.215 184.047 C 281.088 184.003,280.992 183.505,280.955 182.697 L 280.896 181.417 280.907 182.748 M365.573 182.748 C 365.581 183.808,365.634 184.083,365.833 184.098 C 365.971 184.107,365.993 184.085,365.882 184.047 C 365.754 184.003,365.658 183.505,365.621 182.697 L 365.563 181.417 365.573 182.748 M388.740 182.750 C 388.749 183.969,388.779 184.083,389.083 184.083 C 389.389 184.083,389.418 183.969,389.427 182.708 L 389.438 181.332 389.379 182.666 C 389.296 184.545,388.873 184.575,388.788 182.708 L 388.730 181.417 388.740 182.750 M270.794 181.618 C 271.001 181.658,271.301 181.656,271.460 181.615 C 271.620 181.573,271.450 181.540,271.083 181.542 C 270.717 181.544,270.586 181.578,270.794 181.618 M299.699 182.779 C 299.672 183.762,299.615 183.989,299.375 184.052 C 299.102 184.123,299.102 184.129,299.380 184.147 C 299.785 184.174,299.861 183.896,299.791 182.649 L 299.731 181.583 299.699 182.779 M248.739 182.998 C 248.747 183.835,248.807 184.084,249.000 184.098 C 249.137 184.107,249.160 184.085,249.049 184.047 C 248.931 184.007,248.823 183.554,248.788 182.948 L 248.727 181.917 248.739 182.998 M250.572 182.998 C 250.581 183.835,250.640 184.084,250.833 184.098 C 250.971 184.107,250.993 184.085,250.882 184.047 C 250.764 184.007,250.657 183.554,250.621 182.948 L 250.561 181.917 250.572 182.998 M334.375 181.957 C 335.085 181.988,336.248 181.988,336.958 181.957 C 337.669 181.926,337.087 181.900,335.667 181.900 C 334.246 181.900,333.665 181.926,334.375 181.957 M360.072 182.998 C 360.081 183.835,360.140 184.084,360.333 184.098 C 360.471 184.107,360.493 184.085,360.382 184.047 C 360.264 184.007,360.157 183.554,360.121 182.948 L 360.061 181.917 360.072 182.998 M361.905 182.998 C 361.914 183.835,361.973 184.084,362.167 184.098 C 362.304 184.107,362.326 184.085,362.216 184.047 C 362.097 184.007,361.990 183.554,361.954 182.948 L 361.894 181.917 361.905 182.998 M375.542 182.417 C 375.544 182.783,375.578 182.914,375.618 182.706 C 375.658 182.499,375.656 182.199,375.615 182.040 C 375.573 181.880,375.540 182.050,375.542 182.417 M287.672 183.105 C 287.664 183.380,288.121 183.712,288.369 183.612 C 288.507 183.557,288.482 183.522,288.300 183.513 C 288.144 183.506,287.940 183.369,287.847 183.208 C 287.753 183.048,287.675 183.001,287.672 183.105 M313.005 183.105 C 312.998 183.380,313.454 183.712,313.703 183.612 C 313.841 183.557,313.816 183.522,313.633 183.513 C 313.477 183.506,313.273 183.369,313.180 183.208 C 313.087 183.048,313.008 183.001,313.005 183.105 M347.792 184.118 C 347.998 184.157,348.335 184.157,348.542 184.118 C 348.748 184.078,348.579 184.045,348.167 184.045 C 347.754 184.045,347.585 184.078,347.792 184.118 M392.372 185.667 C 392.372 185.987,392.406 186.119,392.448 185.958 C 392.490 185.798,392.490 185.535,392.448 185.375 C 392.406 185.215,392.372 185.346,392.372 185.667 M11.050 187.667 C 11.050 188.171,11.081 188.377,11.119 188.125 C 11.158 187.873,11.158 187.460,11.119 187.208 C 11.081 186.956,11.050 187.162,11.050 187.667 M108.458 187.625 C 160.456 187.648,245.544 187.648,297.542 187.625 C 349.540 187.602,306.996 187.583,203.000 187.583 C 99.004 187.583,56.460 187.602,108.458 187.625 M13.568 190.230 C 13.520 190.356,13.509 190.824,13.543 191.271 L 13.607 192.083 13.637 191.125 L 13.667 190.167 64.958 190.125 L 116.250 190.083 64.953 190.041 C 21.517 190.006,13.643 190.035,13.568 190.230 M392.372 192.167 C 392.372 192.487,392.406 192.619,392.448 192.458 C 392.490 192.298,392.490 192.035,392.448 191.875 C 392.406 191.715,392.372 191.846,392.372 192.167 " stroke="none" fill="#a4948c" fill-rule="evenodd"></path><path id="path3" d="M12.167 2.231 C 12.167 2.267,12.388 2.328,12.658 2.368 C 12.928 2.407,13.111 2.378,13.065 2.303 C 12.982 2.170,12.167 2.104,12.167 2.231 M11.048 4.083 C 11.049 4.542,11.081 4.709,11.120 4.456 C 11.158 4.203,11.157 3.828,11.117 3.623 C 11.078 3.418,11.046 3.625,11.048 4.083 M10.896 8.250 C 10.896 9.258,10.924 9.649,10.957 9.119 C 10.990 8.588,10.990 7.763,10.956 7.286 C 10.922 6.808,10.895 7.242,10.896 8.250 M392.209 9.083 C 392.211 9.450,392.245 9.580,392.285 9.373 C 392.324 9.166,392.323 8.866,392.281 8.706 C 392.239 8.547,392.207 8.717,392.209 9.083 M103.708 22.953 C 103.960 22.991,104.373 22.991,104.625 22.953 C 104.877 22.915,104.671 22.883,104.167 22.883 C 103.662 22.883,103.456 22.915,103.708 22.953 M110.208 22.953 C 110.460 22.991,110.873 22.991,111.125 22.953 C 111.377 22.915,111.171 22.883,110.667 22.883 C 110.162 22.883,109.956 22.915,110.208 22.953 M107.708 25.948 C 107.869 25.990,108.131 25.990,108.292 25.948 C 108.452 25.906,108.321 25.872,108.000 25.872 C 107.679 25.872,107.548 25.906,107.708 25.948 M137.000 36.552 C 137.000 36.581,137.244 36.825,137.542 37.094 L 138.083 37.583 137.594 37.042 C 137.138 36.537,137.000 36.423,137.000 36.552 M363.955 38.454 C 364.250 38.490,364.775 38.491,365.121 38.455 C 365.467 38.419,365.225 38.389,364.583 38.388 C 363.942 38.387,363.659 38.417,363.955 38.454 M358.909 41.042 L 358.250 41.750 358.958 41.091 C 359.617 40.478,359.743 40.333,359.617 40.333 C 359.590 40.333,359.271 40.652,358.909 41.042 M40.833 50.917 C 40.150 51.604,39.629 52.167,39.675 52.167 C 39.721 52.167,40.317 51.604,41.000 50.917 C 41.683 50.229,42.204 49.667,42.158 49.667 C 42.112 49.667,41.516 50.229,40.833 50.917 M33.906 52.708 L 33.417 53.250 33.958 52.760 C 34.463 52.304,34.577 52.167,34.448 52.167 C 34.419 52.167,34.175 52.410,33.906 52.708 M145.539 56.333 C 145.539 56.654,145.573 56.785,145.615 56.625 C 145.657 56.465,145.657 56.202,145.615 56.042 C 145.573 55.881,145.539 56.012,145.539 56.333 M337.548 67.083 C 337.549 67.542,337.581 67.709,337.620 67.456 C 337.658 67.203,337.657 66.828,337.617 66.623 C 337.578 66.418,337.546 66.625,337.548 67.083 M362.412 69.208 L 361.250 70.417 362.458 69.254 C 363.581 68.175,363.743 68.000,363.621 68.000 C 363.595 68.000,363.051 68.544,362.412 69.208 M330.375 72.250 C 330.377 72.617,330.411 72.747,330.451 72.540 C 330.491 72.332,330.490 72.032,330.448 71.873 C 330.406 71.714,330.374 71.883,330.375 72.250 M362.910 74.208 L 362.083 75.083 362.958 74.256 C 363.440 73.801,363.833 73.408,363.833 73.381 C 363.833 73.257,363.679 73.395,362.910 74.208 M96.413 91.167 C 96.413 98.638,96.433 101.694,96.458 97.958 C 96.483 94.223,96.483 88.110,96.458 84.375 C 96.433 80.640,96.413 83.696,96.413 91.167 M221.872 78.667 C 221.872 78.987,221.906 79.119,221.948 78.958 C 221.990 78.798,221.990 78.535,221.948 78.375 C 221.906 78.215,221.872 78.346,221.872 78.667 M226.052 83.083 C 226.053 83.633,226.084 83.838,226.121 83.539 C 226.158 83.239,226.157 82.789,226.119 82.539 C 226.081 82.288,226.051 82.533,226.052 83.083 M330.375 82.953 C 330.627 82.991,331.040 82.991,331.292 82.953 C 331.544 82.915,331.337 82.883,330.833 82.883 C 330.329 82.883,330.123 82.915,330.375 82.953 M237.455 85.287 C 237.750 85.324,238.275 85.324,238.621 85.288 C 238.967 85.252,238.725 85.222,238.083 85.221 C 237.442 85.221,237.159 85.250,237.455 85.287 M218.711 85.453 C 218.964 85.491,219.339 85.490,219.544 85.451 C 219.749 85.411,219.542 85.380,219.083 85.381 C 218.625 85.382,218.457 85.415,218.711 85.453 M136.500 88.583 C 135.817 89.271,135.296 89.833,135.342 89.833 C 135.388 89.833,135.984 89.271,136.667 88.583 C 137.350 87.896,137.871 87.333,137.825 87.333 C 137.779 87.333,137.183 87.896,136.500 88.583 M91.245 98.167 C 91.245 104.079,91.266 106.498,91.292 103.542 C 91.317 100.585,91.317 95.748,91.292 92.792 C 91.266 89.835,91.245 92.254,91.245 98.167 M237.458 87.784 C 237.665 87.824,238.002 87.824,238.208 87.784 C 238.415 87.745,238.246 87.712,237.833 87.712 C 237.421 87.712,237.252 87.745,237.458 87.784 M232.208 87.953 C 232.460 87.991,232.873 87.991,233.125 87.953 C 233.377 87.915,233.171 87.883,232.667 87.883 C 232.162 87.883,231.956 87.915,232.208 87.953 M156.708 93.115 C 156.869 93.157,157.131 93.157,157.292 93.115 C 157.452 93.073,157.321 93.039,157.000 93.039 C 156.679 93.039,156.548 93.073,156.708 93.115 M209.794 93.118 C 210.001 93.158,210.301 93.156,210.460 93.115 C 210.620 93.073,210.450 93.040,210.083 93.042 C 209.717 93.044,209.586 93.078,209.794 93.118 M221.039 93.500 C 221.039 93.821,221.073 93.952,221.115 93.792 C 221.157 93.631,221.157 93.369,221.115 93.208 C 221.073 93.048,221.039 93.179,221.039 93.500 M245.375 93.115 C 245.535 93.157,245.798 93.157,245.958 93.115 C 246.119 93.073,245.987 93.039,245.667 93.039 C 245.346 93.039,245.215 93.073,245.375 93.115 M225.718 94.250 C 225.719 94.800,225.750 95.005,225.787 94.705 C 225.825 94.406,225.824 93.956,225.786 93.705 C 225.748 93.455,225.717 93.700,225.718 94.250 M220.889 98.500 C 220.889 99.188,220.919 99.469,220.955 99.125 C 220.991 98.781,220.991 98.219,220.955 97.875 C 220.919 97.531,220.889 97.813,220.889 98.500 M179.542 98.615 C 179.702 98.657,179.965 98.657,180.125 98.615 C 180.285 98.573,180.154 98.539,179.833 98.539 C 179.512 98.539,179.381 98.573,179.542 98.615 M225.381 101.417 C 225.382 101.875,225.415 102.043,225.453 101.789 C 225.491 101.536,225.490 101.161,225.451 100.956 C 225.411 100.751,225.380 100.958,225.381 101.417 M211.717 101.667 C 211.717 102.171,211.748 102.377,211.786 102.125 C 211.824 101.873,211.824 101.460,211.786 101.208 C 211.748 100.956,211.717 101.162,211.717 101.667 M308.960 101.118 C 309.168 101.158,309.468 101.156,309.627 101.115 C 309.786 101.073,309.617 101.040,309.250 101.042 C 308.883 101.044,308.753 101.078,308.960 101.118 M167.892 104.833 C 167.892 105.612,167.920 105.931,167.955 105.542 C 167.990 105.152,167.990 104.515,167.955 104.125 C 167.920 103.735,167.892 104.054,167.892 104.833 M220.709 104.250 C 220.711 104.617,220.745 104.747,220.785 104.540 C 220.824 104.332,220.823 104.032,220.781 103.873 C 220.739 103.714,220.707 103.883,220.709 104.250 M206.539 105.167 C 206.539 105.487,206.573 105.619,206.615 105.458 C 206.657 105.298,206.657 105.035,206.615 104.875 C 206.573 104.715,206.539 104.846,206.539 105.167 M142.042 104.948 C 142.202 104.990,142.465 104.990,142.625 104.948 C 142.785 104.906,142.654 104.872,142.333 104.872 C 142.012 104.872,141.881 104.906,142.042 104.948 M96.372 105.667 C 96.372 105.987,96.406 106.119,96.448 105.958 C 96.490 105.798,96.490 105.535,96.448 105.375 C 96.406 105.215,96.372 105.346,96.372 105.667 M225.220 106.833 C 225.220 107.429,225.250 107.673,225.287 107.375 C 225.324 107.077,225.324 106.590,225.287 106.292 C 225.250 105.994,225.220 106.237,225.220 106.833 M158.385 107.250 C 158.386 107.800,158.417 108.005,158.454 107.705 C 158.491 107.406,158.490 106.956,158.452 106.705 C 158.414 106.455,158.384 106.700,158.385 107.250 M247.052 107.250 C 247.053 107.800,247.084 108.005,247.121 107.705 C 247.158 107.406,247.157 106.956,247.119 106.705 C 247.081 106.455,247.051 106.700,247.052 107.250 M275.708 106.453 C 275.960 106.491,276.373 106.491,276.625 106.453 C 276.877 106.415,276.671 106.383,276.167 106.383 C 275.662 106.383,275.456 106.415,275.708 106.453 M153.385 108.250 C 153.386 108.800,153.417 109.005,153.454 108.705 C 153.491 108.406,153.490 107.956,153.452 107.705 C 153.414 107.455,153.384 107.700,153.385 108.250 M242.013 107.494 C 242.006 107.628,241.682 108.078,241.294 108.494 L 240.588 109.250 241.398 108.478 C 241.868 108.028,242.169 107.610,242.117 107.478 C 242.044 107.295,242.024 107.298,242.013 107.494 M179.055 108.583 C 179.055 109.225,179.086 109.467,179.122 109.121 C 179.158 108.775,179.157 108.250,179.120 107.955 C 179.083 107.659,179.054 107.942,179.055 108.583 M137.625 108.118 C 137.831 108.157,138.169 108.157,138.375 108.118 C 138.581 108.078,138.412 108.045,138.000 108.045 C 137.587 108.045,137.419 108.078,137.625 108.118 M211.383 109.000 C 211.383 109.504,211.415 109.710,211.453 109.458 C 211.491 109.206,211.491 108.794,211.453 108.542 C 211.415 108.290,211.383 108.496,211.383 109.000 M273.627 108.285 C 273.834 108.324,274.134 108.323,274.294 108.281 C 274.453 108.239,274.283 108.207,273.917 108.209 C 273.550 108.211,273.420 108.245,273.627 108.285 M298.573 110.208 L 298.083 110.750 298.625 110.260 C 299.130 109.804,299.243 109.667,299.115 109.667 C 299.086 109.667,298.842 109.910,298.573 110.208 M145.039 110.500 C 145.039 110.821,145.073 110.952,145.115 110.792 C 145.157 110.631,145.157 110.369,145.115 110.208 C 145.073 110.048,145.039 110.179,145.039 110.500 M195.705 112.000 C 195.705 112.321,195.740 112.452,195.782 112.292 C 195.823 112.131,195.823 111.869,195.782 111.708 C 195.740 111.548,195.705 111.679,195.705 112.000 M217.406 112.375 L 216.917 112.917 217.458 112.427 C 217.963 111.971,218.077 111.833,217.948 111.833 C 217.919 111.833,217.675 112.077,217.406 112.375 M96.412 123.667 C 96.412 129.671,96.433 132.127,96.458 129.125 C 96.484 126.123,96.484 121.210,96.458 118.208 C 96.433 115.206,96.412 117.662,96.412 123.667 M203.240 114.708 L 202.750 115.250 203.292 114.760 C 203.797 114.304,203.910 114.167,203.781 114.167 C 203.752 114.167,203.509 114.410,203.240 114.708 M237.824 114.792 L 237.250 115.417 237.875 114.842 C 238.457 114.308,238.577 114.167,238.449 114.167 C 238.422 114.167,238.140 114.448,237.824 114.792 M235.991 116.625 L 235.417 117.250 236.042 116.676 C 236.623 116.141,236.743 116.000,236.616 116.000 C 236.588 116.000,236.307 116.281,235.991 116.625 M279.000 116.719 C 279.000 116.748,279.244 116.991,279.542 117.260 L 280.083 117.750 279.594 117.208 C 279.138 116.703,279.000 116.590,279.000 116.719 M91.247 134.417 C 91.247 144.133,91.267 148.133,91.292 143.304 C 91.316 138.476,91.316 130.526,91.292 125.638 C 91.267 120.749,91.247 124.700,91.247 134.417 M301.875 117.750 C 301.877 118.117,301.911 118.247,301.951 118.040 C 301.991 117.832,301.990 117.532,301.948 117.373 C 301.906 117.214,301.874 117.383,301.875 117.750 M307.211 122.120 C 307.464 122.158,307.839 122.157,308.044 122.117 C 308.249 122.078,308.042 122.046,307.583 122.048 C 307.125 122.049,306.957 122.081,307.211 122.120 M143.375 122.453 C 143.627 122.491,144.040 122.491,144.292 122.453 C 144.544 122.415,144.337 122.383,143.833 122.383 C 143.329 122.383,143.123 122.415,143.375 122.453 M168.743 135.833 C 168.743 139.729,168.765 141.323,168.791 139.375 C 168.818 137.427,168.818 134.240,168.791 132.292 C 168.765 130.344,168.743 131.938,168.743 135.833 M175.500 129.552 C 175.500 129.581,175.744 129.825,176.042 130.094 L 176.583 130.583 176.094 130.042 C 175.638 129.537,175.500 129.423,175.500 129.552 M171.048 130.290 C 171.578 130.323,172.403 130.323,172.881 130.289 C 173.359 130.256,172.925 130.229,171.917 130.229 C 170.908 130.229,170.517 130.257,171.048 130.290 M214.736 136.833 C 214.736 138.621,214.761 139.352,214.791 138.458 C 214.821 137.565,214.821 136.102,214.791 135.208 C 214.761 134.315,214.736 135.046,214.736 136.833 M228.973 134.667 C 228.942 135.217,228.973 135.667,229.042 135.667 C 229.110 135.667,229.167 135.217,229.167 134.667 C 229.167 133.376,229.046 133.376,228.973 134.667 M220.566 136.083 C 220.566 137.367,220.592 137.870,220.624 137.201 C 220.656 136.532,220.655 135.482,220.623 134.868 C 220.591 134.253,220.565 134.800,220.566 136.083 M224.573 138.250 C 224.573 140.725,224.596 141.761,224.624 140.552 C 224.653 139.343,224.653 137.318,224.625 136.052 C 224.596 134.786,224.573 135.775,224.573 138.250 M204.573 134.708 L 204.083 135.250 204.625 134.760 C 205.130 134.304,205.243 134.167,205.115 134.167 C 205.086 134.167,204.842 134.410,204.573 134.708 M245.460 135.118 C 245.668 135.158,245.968 135.156,246.127 135.115 C 246.286 135.073,246.117 135.040,245.750 135.042 C 245.383 135.044,245.253 135.078,245.460 135.118 M247.402 139.917 C 247.402 141.567,247.427 142.219,247.458 141.367 C 247.488 140.514,247.488 139.164,247.457 138.367 C 247.427 137.569,247.402 138.267,247.402 139.917 M203.214 138.250 C 203.216 138.708,203.248 138.876,203.286 138.623 C 203.325 138.369,203.324 137.994,203.284 137.789 C 203.244 137.584,203.213 137.792,203.214 138.250 M195.539 140.167 C 195.539 140.487,195.573 140.619,195.615 140.458 C 195.657 140.298,195.657 140.035,195.615 139.875 C 195.573 139.715,195.539 139.846,195.539 140.167 M188.772 140.299 C 188.727 140.371,188.966 140.404,189.303 140.372 C 190.334 140.275,190.456 140.206,189.635 140.186 C 189.205 140.175,188.816 140.226,188.772 140.299 M220.073 142.041 C 219.633 142.527,219.628 142.542,220.029 142.191 L 220.475 141.799 220.546 142.275 C 220.606 142.678,220.621 142.655,220.642 142.125 C 220.672 141.368,220.681 141.369,220.073 142.041 M191.375 143.115 C 191.535 143.157,191.798 143.157,191.958 143.115 C 192.119 143.073,191.987 143.039,191.667 143.039 C 191.346 143.039,191.215 143.073,191.375 143.115 M230.048 172.750 C 230.049 173.208,230.081 173.376,230.120 173.123 C 230.158 172.869,230.157 172.494,230.117 172.289 C 230.078 172.084,230.046 172.292,230.048 172.750 M228.205 174.333 C 228.205 174.654,228.240 174.785,228.282 174.625 C 228.323 174.465,228.323 174.202,228.282 174.042 C 228.240 173.881,228.205 174.012,228.205 174.333 M334.292 174.791 C 335.048 174.822,336.285 174.822,337.042 174.791 C 337.798 174.760,337.179 174.735,335.667 174.735 C 334.154 174.735,333.535 174.760,334.292 174.791 M334.375 175.457 C 335.085 175.488,336.248 175.488,336.958 175.457 C 337.669 175.426,337.087 175.400,335.667 175.400 C 334.246 175.400,333.665 175.426,334.375 175.457 M228.203 178.784 L 228.167 180.985 227.042 181.043 L 225.917 181.101 227.047 181.134 C 228.421 181.174,228.358 181.297,228.291 178.657 L 228.239 176.583 228.203 178.784 M345.052 178.583 C 345.053 179.133,345.084 179.338,345.121 179.039 C 345.158 178.739,345.157 178.289,345.119 178.039 C 345.081 177.788,345.051 178.033,345.052 178.583 M254.875 180.083 C 254.877 180.450,254.911 180.580,254.951 180.373 C 254.991 180.166,254.990 179.866,254.948 179.706 C 254.906 179.547,254.874 179.717,254.875 180.083 M281.542 180.083 C 281.544 180.450,281.578 180.580,281.618 180.373 C 281.658 180.166,281.656 179.866,281.615 179.706 C 281.573 179.547,281.540 179.717,281.542 180.083 M366.209 180.083 C 366.211 180.450,366.245 180.580,366.285 180.373 C 366.324 180.166,366.323 179.866,366.281 179.706 C 366.239 179.547,366.207 179.717,366.209 180.083 M301.709 180.250 C 301.711 180.617,301.745 180.747,301.785 180.540 C 301.824 180.332,301.823 180.032,301.781 179.873 C 301.739 179.714,301.707 179.883,301.709 180.250 M234.658 181.292 L 234.083 181.917 234.708 181.342 C 235.290 180.808,235.410 180.667,235.283 180.667 C 235.255 180.667,234.974 180.948,234.658 181.292 M244.250 181.167 C 244.250 181.424,244.306 181.600,244.375 181.558 C 244.444 181.515,244.500 181.339,244.500 181.167 C 244.500 180.994,244.444 180.818,244.375 180.776 C 244.306 180.733,244.250 180.909,244.250 181.167 M292.250 181.167 C 292.250 181.424,292.306 181.600,292.375 181.558 C 292.444 181.515,292.500 181.339,292.500 181.167 C 292.500 180.994,292.444 180.818,292.375 180.776 C 292.306 180.733,292.250 180.909,292.250 181.167 M380.917 181.167 C 380.917 181.424,380.973 181.600,381.042 181.558 C 381.110 181.515,381.167 181.339,381.167 181.167 C 381.167 180.994,381.110 180.818,381.042 180.776 C 380.973 180.733,380.917 180.909,380.917 181.167 M242.561 182.417 C 242.561 183.333,242.589 183.687,242.623 183.203 C 242.657 182.718,242.656 181.968,242.622 181.536 C 242.588 181.104,242.560 181.500,242.561 182.417 M244.895 182.500 C 244.895 183.463,244.923 183.856,244.956 183.375 C 244.990 182.894,244.990 182.106,244.956 181.625 C 244.923 181.144,244.895 181.537,244.895 182.500 M246.728 182.500 C 246.728 183.463,246.756 183.856,246.790 183.375 C 246.823 182.894,246.823 182.106,246.790 181.625 C 246.756 181.144,246.728 181.537,246.728 182.500 M256.228 182.500 C 256.228 183.463,256.256 183.856,256.290 183.375 C 256.323 182.894,256.323 182.106,256.290 181.625 C 256.256 181.144,256.228 181.537,256.228 182.500 M287.721 181.917 C 287.722 182.558,287.752 182.800,287.788 182.455 C 287.824 182.109,287.824 181.584,287.787 181.288 C 287.750 180.992,287.721 181.275,287.721 181.917 M289.050 181.667 C 289.050 182.171,289.081 182.377,289.119 182.125 C 289.158 181.873,289.158 181.460,289.119 181.208 C 289.081 180.956,289.050 181.162,289.050 181.667 M290.561 182.417 C 290.561 183.333,290.589 183.687,290.623 183.203 C 290.657 182.718,290.656 181.968,290.622 181.536 C 290.588 181.104,290.560 181.500,290.561 182.417 M300.220 181.083 C 300.243 181.310,300.387 181.425,300.668 181.444 C 301.016 181.467,301.024 181.458,300.719 181.392 C 300.518 181.348,300.316 181.186,300.270 181.031 C 300.209 180.829,300.195 180.843,300.220 181.083 M313.055 181.917 C 313.055 182.558,313.086 182.800,313.122 182.455 C 313.158 182.109,313.157 181.584,313.120 181.288 C 313.083 180.992,313.054 181.275,313.055 181.917 M314.383 181.667 C 314.383 182.171,314.415 182.377,314.453 182.125 C 314.491 181.873,314.491 181.460,314.453 181.208 C 314.415 180.956,314.383 181.162,314.383 181.667 M349.910 183.375 C 349.916 185.798,349.932 185.917,350.250 185.933 C 350.495 185.945,350.507 185.931,350.296 185.880 C 350.043 185.820,350.002 185.515,349.956 183.322 L 349.903 180.833 349.910 183.375 M354.062 182.500 C 354.062 183.463,354.089 183.856,354.123 183.375 C 354.157 182.894,354.157 182.106,354.123 181.625 C 354.089 181.144,354.062 181.537,354.062 182.500 M358.062 182.500 C 358.062 183.463,358.089 183.856,358.123 183.375 C 358.157 182.894,358.157 182.106,358.123 181.625 C 358.089 181.144,358.062 181.537,358.062 182.500 M367.562 182.500 C 367.562 183.463,367.589 183.856,367.623 183.375 C 367.657 182.894,367.657 182.106,367.623 181.625 C 367.589 181.144,367.562 181.537,367.562 182.500 M379.228 182.417 C 379.228 183.333,379.256 183.687,379.290 183.203 C 379.324 182.718,379.323 181.968,379.289 181.536 C 379.255 181.104,379.227 181.500,379.228 182.417 M254.904 181.557 C 254.856 181.680,254.844 182.337,254.876 183.016 L 254.934 184.250 254.967 182.887 C 254.995 181.746,255.048 181.512,255.292 181.448 C 255.565 181.377,255.565 181.371,255.286 181.353 C 255.123 181.342,254.951 181.434,254.904 181.557 M281.570 181.557 C 281.523 181.680,281.510 182.337,281.542 183.016 L 281.600 184.250 281.634 182.887 C 281.661 181.746,281.714 181.512,281.958 181.448 C 282.232 181.377,282.231 181.371,281.953 181.353 C 281.790 181.342,281.618 181.434,281.570 181.557 M301.700 182.708 L 301.734 184.083 301.790 182.803 C 301.836 181.765,301.901 181.508,302.132 181.447 C 302.338 181.393,302.313 181.367,302.042 181.353 C 301.679 181.334,301.668 181.378,301.700 182.708 M347.085 181.497 C 347.027 181.590,347.041 181.668,347.115 181.669 C 347.189 181.671,347.137 181.744,347.000 181.833 C 346.863 181.922,346.835 181.996,346.938 181.997 C 347.219 182.001,347.549 181.550,347.353 181.429 C 347.263 181.373,347.143 181.404,347.085 181.497 M348.885 182.250 C 348.886 182.800,348.917 183.005,348.954 182.705 C 348.991 182.406,348.990 181.956,348.952 181.705 C 348.914 181.455,348.884 181.700,348.885 182.250 M366.237 181.557 C 366.190 181.680,366.177 182.337,366.209 183.016 L 366.267 184.250 366.300 182.887 C 366.328 181.746,366.381 181.512,366.625 181.448 C 366.898 181.377,366.898 181.371,366.620 181.353 C 366.456 181.342,366.284 181.434,366.237 181.557 M387.500 181.472 C 387.500 181.579,387.331 181.675,387.125 181.686 C 386.816 181.702,386.805 181.719,387.059 181.785 C 387.392 181.871,387.802 181.580,387.614 181.392 C 387.551 181.329,387.500 181.365,387.500 181.472 M266.276 181.708 C 266.318 181.777,266.494 181.833,266.667 181.833 C 266.839 181.833,267.015 181.777,267.058 181.708 C 267.100 181.640,266.924 181.583,266.667 181.583 C 266.409 181.583,266.233 181.640,266.276 181.708 M251.224 182.917 C 251.224 183.650,251.254 183.929,251.289 183.537 C 251.324 183.145,251.324 182.545,251.288 182.204 C 251.252 181.863,251.223 182.183,251.224 182.917 M362.557 182.917 C 362.558 183.650,362.587 183.929,362.622 183.537 C 362.657 183.145,362.657 182.545,362.621 182.204 C 362.585 181.863,362.557 182.183,362.557 182.917 M249.388 183.083 C 249.389 183.725,249.419 183.967,249.455 183.621 C 249.491 183.275,249.490 182.750,249.454 182.455 C 249.417 182.159,249.387 182.442,249.388 183.083 M299.055 183.083 C 299.055 183.725,299.086 183.967,299.122 183.621 C 299.158 183.275,299.157 182.750,299.120 182.455 C 299.083 182.159,299.054 182.442,299.055 183.083 M315.705 182.500 C 315.705 182.821,315.740 182.952,315.782 182.792 C 315.823 182.631,315.823 182.369,315.782 182.208 C 315.740 182.048,315.705 182.179,315.705 182.500 M360.721 183.083 C 360.722 183.725,360.752 183.967,360.788 183.621 C 360.824 183.275,360.824 182.750,360.787 182.455 C 360.750 182.159,360.721 182.442,360.721 183.083 M384.667 182.382 C 384.667 182.604,384.433 182.663,383.375 182.709 L 382.083 182.766 383.380 182.800 C 384.625 182.832,385.162 182.606,384.771 182.215 C 384.713 182.158,384.667 182.233,384.667 182.382 M297.718 183.250 C 297.719 183.800,297.750 184.005,297.787 183.705 C 297.825 183.406,297.824 182.956,297.786 182.705 C 297.748 182.455,297.717 182.700,297.718 183.250 M274.963 182.789 C 275.355 182.824,275.955 182.824,276.296 182.788 C 276.637 182.752,276.317 182.723,275.583 182.724 C 274.850 182.724,274.571 182.754,274.963 182.789 M328.000 182.885 C 328.000 182.914,328.244 183.158,328.542 183.427 L 329.083 183.917 328.594 183.375 C 328.138 182.870,328.000 182.757,328.000 182.885 M386.764 183.058 C 386.837 183.250,386.794 183.423,386.649 183.514 C 386.475 183.624,386.471 183.662,386.630 183.664 C 386.935 183.668,387.081 183.181,386.846 182.947 C 386.692 182.795,386.674 182.820,386.764 183.058 M264.503 183.292 C 264.504 183.477,264.550 183.514,264.628 183.394 C 264.695 183.290,264.900 183.168,265.083 183.122 C 265.339 183.058,265.310 183.034,264.958 183.019 C 264.625 183.005,264.501 183.079,264.503 183.292 M347.833 183.529 C 347.833 183.605,348.058 183.667,348.333 183.667 C 348.608 183.667,348.833 183.638,348.833 183.602 C 348.833 183.567,348.608 183.505,348.333 183.464 C 348.058 183.424,347.833 183.453,347.833 183.529 M11.048 186.083 C 11.049 186.542,11.081 186.709,11.120 186.456 C 11.158 186.203,11.157 185.828,11.117 185.623 C 11.078 185.418,11.046 185.625,11.048 186.083 M10.896 190.250 C 10.896 191.258,10.924 191.649,10.957 191.119 C 10.990 190.588,10.990 189.763,10.956 189.286 C 10.922 188.808,10.895 189.242,10.896 190.250 M185.125 190.125 C 223.098 190.148,285.235 190.148,323.208 190.125 C 361.181 190.102,330.112 190.083,254.167 190.083 C 178.221 190.083,147.152 190.102,185.125 190.125 M392.212 191.000 C 392.212 191.412,392.245 191.581,392.284 191.375 C 392.324 191.169,392.324 190.831,392.284 190.625 C 392.245 190.419,392.212 190.588,392.212 191.000 " stroke="none" fill="#c3b4ac" fill-rule="evenodd"></path></g></svg>